<?xml version="1.0" standalone="no"?>
<!DOCTYPE svg PUBLIC "-//W3C//DTD SVG 1.1//EN" "http://www.w3.org/Graphics/SVG/1.1/DTD/svg11.dtd" >
<svg xmlns="http://www.w3.org/2000/svg">
<metadata>
This is a custom SVG webfont generated by Font Squirrel.
Copyright   :  1992 Unity Progress Portions  2004 The Monotype Corporation Portions  2006 Microsoft Corporation All Rights Reserved
</metadata>
<defs>
<font id="AngsanaNewItalic" horiz-adv-x="676" >
<font-face units-per-em="2048" ascent="1638" descent="-410" />
<missing-glyph horiz-adv-x="338" />
<glyph unicode=" "  horiz-adv-x="338" />
<glyph unicode="&#x09;" horiz-adv-x="338" />
<glyph unicode="&#xa0;" horiz-adv-x="338" />
<glyph unicode="!" horiz-adv-x="450" d="M102 46q0 68 67 68q68 0 68 -68t-68 -68q-67 0 -67 68zM188 218q48 180 76 347l40 245q12 58 42 90q14 16 39 16q44 0 44 -54q-1 -26 -13 -68q-28 -96 -106 -300l-42 -109q-11 -32 -55 -167h-25z" />
<glyph unicode="&#x22;" horiz-adv-x="567" d="M194 530l20 196q10 86 18 112q24 78 87 78q50 0 50 -47q-1 -15 -7 -35q-9 -26 -48 -110l-92 -194h-28zM436 530l20 192q7 73 10 89q15 71 53 93q19 12 43 12q48 0 49 -46q0 -18 -9 -44q-24 -64 -42 -102l-92 -194h-32z" />
<glyph unicode="#" d="M97 282v54h123l46 226h-169v53h181l60 301h56l-60 -301h222l64 301h54l-62 -301h112v-53h-122l-46 -226h168v-54h-180l-61 -300h-53l60 300h-224l-62 -300h-56l62 300h-113zM276 336h224l47 226h-225z" />
<glyph unicode="$" d="M57 62l54 188h27q-8 -42 -8 -71q0 -113 107 -149l115 404q-158 124 -158 246q0 93 70 157q68 62 162 62q22 0 59 -4l15 51h42l-16 -57q74 -22 134 -76l-43 -159h-27q2 30 2 49q0 57 -25 99q-15 26 -52 46l-92 -318q105 -82 145 -151q28 -50 28 -113q0 -76 -43 -144.5 t-112 -101.5t-177 -32l-22 -77h-44l24 77q-93 18 -165 74zM274 24q20 -2 30 -2q116 0 173 97q27 45 27 97q0 86 -118 188zM290 715q0 -73 99 -159l86 304q-30 4 -46 4q-60 0 -100 -45q-39 -43 -39 -104z" />
<glyph unicode="%" horiz-adv-x="1126" d="M95 -36l947 952h62l-946 -952h-63zM100 616q0 106 74 200q79 100 183 100q69 0 113 -56q40 -52 40 -124q0 -108 -70 -200q-76 -100 -182 -100q-72 0 -116 56q-42 50 -42 124zM185 540q0 -78 67 -78q28 0 50 19q54 49 90 151q35 96 35 174q1 80 -65 81q-32 1 -60 -25 q-52 -48 -86 -150q-32 -94 -31 -172zM692 138q0 108 72 202q78 102 181 102q72 0 116 -56q41 -52 41 -126q0 -166 -136 -256q-60 -40 -116 -40q-71 0 -116 52q-42 50 -42 122zM775 70q0 -80 65 -80q32 0 54 22q50 48 88 148q34 95 34 170q0 84 -63 84q-33 0 -59 -24 q-50 -46 -86 -149q-34 -97 -33 -171z" />
<glyph unicode="&#x26;" horiz-adv-x="1051" d="M64 204q0 118 100 207q64 59 266 127q-6 50 -6 87q0 117 60 199q66 92 180 92q62 0 104 -34q42 -36 42 -97q0 -163 -260 -247q48 -197 118 -330q102 124 102 198q0 35 -59 38v26h267v-26q-64 -8 -105 -40q-32 -24 -75 -86q-68 -100 -108 -152q80 -132 170 -132 q56 0 101 48h29q-74 -102 -188 -102q-118 0 -202 102q-136 -102 -286 -102q-110 0 -178 56q-72 60 -72 168zM198 236q0 -85 53 -138.5t138 -53.5q81 0 187 75q-98 153 -139 377q-239 -90 -239 -260zM528 692q0 -44 14 -112q100 44 135 82q49 54 49 118q0 90 -84 90 q-114 0 -114 -178z" />
<glyph unicode="'" horiz-adv-x="289" d="M178 530l20 196q9 84 17 112q25 78 87 78q52 0 51 -48q-1 -14 -7 -33q-8 -23 -48 -111l-92 -194h-28z" />
<glyph unicode="(" horiz-adv-x="450" d="M92 156q0 214 98 382q120 206 392 400l16 -22q-122 -90 -200 -203q-95 -138 -156.5 -334.5t-61.5 -364.5q0 -124 74 -292l-22 -11q-79 151 -113 265q-27 88 -27 180z" />
<glyph unicode=")" horiz-adv-x="450" d="M-147 -268q122 92 199 202q96 138 158 335t62 364q0 124 -76 293l23 12q79 -148 113 -264q26 -90 26 -180q0 -213 -98 -381q-122 -206 -392 -402z" />
<glyph unicode="*" d="M192 554q0 40 54 64q18 8 80 22q40 8 80 24q-34 18 -84 28q-81 16 -101 32q-29 22 -29 52q0 48 49 48q46 0 107 -70q36 -42 74 -65q-2 45 -18 91q-22 64 -23 88q0 70 56 70q51 0 51 -68q0 -26 -18 -86q-19 -64 -21 -95q37 24 65 56q67 77 111 77q51 0 51 -50 q0 -54 -130 -82q-50 -12 -84 -26q34 -18 83 -26q129 -24 129 -84q0 -49 -49 -49q-45 0 -109 76q-28 33 -67 61q1 -36 15 -82q24 -76 24 -106q0 -64 -50 -64q-25 0 -44 20q-14 14 -14 44q0 28 14 70q20 62 20 68q4 18 8 50q-40 -26 -68 -58q-49 -54 -73 -68q-17 -10 -35 -11 q-54 0 -54 49z" />
<glyph unicode="+" horiz-adv-x="912" d="M126 422v54h328v328h54v-328h329v-54h-329v-329h-54v329h-328z" />
<glyph unicode="," horiz-adv-x="338" d="M-14 -148q50 22 80 56q24 26 24 51q0 12 -4 22q-16 14 -36 43q-4 12 -4 26q0 28 19 48.5t46 20.5q30 0 49.5 -23.5t19.5 -53.5q0 -72 -58 -132q-50 -52 -122 -80z" />
<glyph unicode="-" horiz-adv-x="450" d="M36 250l26 88h342l-26 -88h-342z" />
<glyph unicode="." horiz-adv-x="338" d="M46 52q0 66 66 66q68 0 68 -66t-68 -67q-66 1 -66 67z" />
<glyph unicode="/" horiz-adv-x="375" d="M-46 -20l506 958h56l-504 -958h-58z" />
<glyph unicode="0" d="M80 278q0 152 58 304q68 178 174 270q70 62 156 62q108 0 159 -99q41 -76 41 -195q0 -294 -164 -502q-62 -79 -130 -114q-39 -20 -92 -20q-110 0 -161 98q-41 76 -41 196zM180 145q0 -137 101 -137q40 0 69 27q76 71 130 243q88 280 88 458q0 142 -100 143 q-90 0 -159 -155q-42 -96 -80 -245q-49 -195 -49 -334z" />
<glyph unicode="1" d="M82 0l10 24q54 1 71 9q27 11 41 31q22 30 45 110l153 531q14 49 15 55q2 12 2 26q-1 50 -47 50q-18 0 -53 -8l-9 24l222 62h32l-212 -740q-18 -64 -18 -95q0 -49 95 -55l-7 -24h-340z" />
<glyph unicode="2" d="M21 0v24q341 298 451 468q50 78 50 166q0 68 -42 111t-110 43q-94 0 -153 -88l-23 10q70 180 238 180q84 0 143 -58t59 -142q0 -58 -21 -108q-33 -76 -117 -173q-132 -147 -345 -337h225q106 0 139 82h26l-75 -178h-445z" />
<glyph unicode="3" d="M45 60q0 56 58 56q17 0 35 -6q38 -22 116 -57q23 -7 47 -7q64 0 104 79q33 65 33 137q0 134 -108 192q-56 30 -124 35v19q159 24 239 96q57 50 57 118q0 50 -32 85q-32 36 -81 36q-73 0 -131 -92l-25 7q70 156 206 156q75 0 124 -44q50 -46 50 -121q-1 -136 -201 -217 q138 -58 139 -210q0 -88 -49.5 -169t-128.5 -123q-81 -46 -173 -46q-84 0 -126 29q-28 20 -29 47z" />
<glyph unicode="4" d="M42 224l28 93l538 578h50l-171 -589h107l-24 -82h-108l-70 -240h-96l70 240h-324zM126 306h266l120 418z" />
<glyph unicode="5" d="M48 64q0 58 60 57q36 0 78 -35t76 -35q92 0 150 91q50 80 50 176q0 168 -118 222q-52 24 -138 34l142 321h300l-31 -109h-269l-49 -110q109 -18 167 -67q92 -75 91 -215q0 -171 -116.5 -290.5t-260.5 -119.5q-66 0 -106 29q-26 21 -26 51z" />
<glyph unicode="6" d="M85 246q0 288 233 492q108 94 222 140q68 26 170 36v-26q-241 -56 -405 -329q71 31 116 31q92 0 149 -68q53 -64 53 -157q0 -139 -89 -255q-96 -126 -232 -126q-104 0 -164 81q-54 73 -53 181zM179 166q1 -58 29 -102q32 -50 88 -50q96 0 158 142q50 114 50 225 q0 66 -32 111q-36 51 -99 51q-43 1 -100 -39q-94 -200 -94 -338z" />
<glyph unicode="7" d="M153 8l439 782h-212q-82 0 -114 -13q-36 -16 -80 -78h-28l104 196h446v-23l-502 -888z" />
<glyph unicode="8" d="M52 202q0 170 263 285q-101 123 -101 212q0 94 70 155q68 60 162 60q85 0 147 -48q67 -52 67 -136q0 -156 -204 -229q122 -132 122 -249q0 -114 -86 -192q-84 -76 -198 -76q-98 0 -168 59q-74 63 -74 159zM140 175q0 -72 44 -116q46 -44 118 -44q75 0 126.5 52.5 t51.5 126.5q0 112 -141 266q-199 -83 -199 -285zM312 748q0 -44 18 -82q28 -56 100 -138q150 52 150 208q0 64 -36.5 104t-100.5 40q-59 0 -95 -36.5t-36 -95.5z" />
<glyph unicode="9" d="M39 6q68 14 118 42q175 96 287 288q-64 -32 -114 -32q-95 0 -151 66q-53 63 -53 160q0 138 89 256q97 128 231 128q104 0 164 -82q54 -73 54 -182q0 -286 -231 -490q-106 -94 -223 -140q-70 -27 -171 -36v22zM246 511q0 -161 128 -161q46 0 102 40q94 190 94 338 q0 60 -28 102q-32 48 -90 48q-98 0 -158 -142q-48 -112 -48 -225z" />
<glyph unicode=":" horiz-adv-x="450" d="M80 54q0 66 67 66q66 0 66 -66t-66 -66q-67 0 -67 66zM220 532q0 66 67 66t67 -66q0 -68 -67 -68t-67 68z" />
<glyph unicode=";" horiz-adv-x="450" d="M24 -146q102 58 102 104q0 14 -4 24q-14 16 -35 46q-5 11 -5 25q0 27 19 48t46 21q69 0 69 -79q0 -92 -93 -164q-14 -11 -88 -49zM222 530q0 66 67 66t67 -66q0 -68 -67 -68t-67 68z" />
<glyph unicode="&#x3c;" horiz-adv-x="912" d="M99 434v32l710 308v-58l-611 -265l611 -268v-59z" />
<glyph unicode="=" horiz-adv-x="912" d="M132 314v54h712v-54h-712zM132 528v55h712v-55h-712z" />
<glyph unicode="&#x3e;" horiz-adv-x="912" d="M99 124v56l612 266l-612 268v60l710 -310v-33z" />
<glyph unicode="?" d="M130 46q0 68 68 68t68 -68q0 -66 -68 -66t-68 66zM183 762q0 73 72 117q61 37 139 37q88 0 153 -49q73 -54 73 -139q0 -58 -30 -102q-38 -56 -144 -131q-110 -77 -148 -129q-40 -56 -60 -146h-26q10 94 52 165q31 52 110 136q92 96 120 155q20 42 20 86q0 55 -38 90 q-38 34 -94 34t-91 -24q-19 -14 -19 -32q0 -12 10.5 -37t10.5 -38q-1 -53 -55 -53q-56 0 -55 60z" />
<glyph unicode="@" horiz-adv-x="1243" d="M64 293q0 174 80 323q83 152 230.5 237t313.5 85q296 0 414 -221q58 -109 58 -231q0 -114 -49 -228q-54 -126 -142 -184q-83 -54 -173 -54q-102 0 -102 91q0 37 12 97q-156 -188 -260 -188q-56 0 -90 50q-30 44 -30 104q0 108 70 228q66 114 158 180q76 54 136 54 q92 0 114 -91l22 73l104 14l-78 -263q-62 -210 -62 -251q0 -50 50 -50q72 0 142 70q56 56 90 134q48 108 48 226q0 114 -54 208q-56 96 -155 147.5t-219 51.5q-160 1 -290 -85q-126 -82 -200 -228q-76 -152 -76 -316q0 -148 63 -269q69 -130 193 -195q122 -64 261 -64 q182 0 322 99q137 97 209 267h38q-62 -184 -220 -296q-156 -110 -352 -110q-158 0 -291 74q-136 76 -210.5 211.5t-74.5 299.5zM431 194q-1 -36 19 -64q22 -30 57 -30q78 0 169 118q46 60 67 121q37 106 37 171q0 95 -82 95q-50 0 -100 -52q-74 -77 -128 -207 q-39 -94 -39 -152z" />
<glyph unicode="A" horiz-adv-x="825" d="M-66 0l8 24q58 2 114 59q20 22 82 105l535 728h23l-68 -745q-6 -59 -5 -69q0 -26 10 -40q26 -38 106 -38l-7 -24h-352l7 24h15q42 0 70 19q20 13 30 41q6 18 14 97l10 113h-256l-91 -123q-47 -64 -47 -94q0 -51 74 -53l-8 -24h-264zM306 342h226l34 354z" />
<glyph unicode="B" horiz-adv-x="825" d="M-31 0l9 24q50 0 70 10q26 12 37 30q17 26 43 115l160 541q20 70 20 97q0 53 -87 53h-21l9 25h319q172 0 238 -95q32 -45 32 -95q0 -176 -238 -232q158 -59 158 -191q0 -146 -122 -222q-54 -34 -130 -49q-54 -11 -169 -11h-328zM204 58q72 -9 112 -9q107 1 181 61 q81 66 81 169q0 173 -208 173q-21 0 -52 -2zM334 499q43 -1 62 -1q114 0 186 46q86 55 86 163q0 144 -172 144q-24 0 -61 -8z" />
<glyph unicode="C" horiz-adv-x="901" d="M91 334q0 152 80.5 289t213.5 213q137 80 277 80q64 0 146 -32q34 -14 52 -13q28 1 66 45h25l-67 -290h-24l-2 72q-1 34 -15 71q-25 63 -96 89q-37 12 -81 13q-118 -1 -206 -65q-113 -82 -177 -232q-53 -124 -53 -252q0 -126 73 -205q75 -80 201 -80q176 0 296 167h31 q-141 -224 -373 -224q-230 0 -322 174q-44 84 -45 180z" />
<glyph unicode="D" horiz-adv-x="976" d="M-40 0l8 24q52 2 70 10q26 12 39 30q18 28 43 112l158 541q18 63 19 100q-1 53 -85 53h-14l8 25h286q150 1 232 -27q114 -38 176 -146q52 -90 52 -192q0 -174 -98 -302q-108 -144 -286 -200q-92 -28 -230 -28h-378zM216 82q0 -26 26 -33q20 -6 56 -6q226 0 338 85 q176 134 176 414q0 306 -290 306q-34 0 -90 -2l-194 -670q-22 -76 -22 -94z" />
<glyph unicode="E" horiz-adv-x="825" d="M-30 0l8 24q52 2 70 10q26 12 38 30q16 26 42 114l157 540q19 64 19 99q0 53 -86 53h-14l8 25h642l-54 -216h-25q5 30 5 51q0 74 -83 105q-32 12 -146 12h-113l-102 -354h83q86 0 126 25q43 28 73 104h25l-92 -325h-27q12 41 12 70q0 53 -42 71q-20 8 -86 8h-84l-87 -296 q-13 -44 -13 -66q0 -17 17 -30q12 -9 56 -9h79q128 0 206 45.5t140 158.5h24l-84 -249h-692z" />
<glyph unicode="F" horiz-adv-x="825" d="M-33 0l9 24q50 2 68 10q27 12 39 30q19 26 43 112l157 539q19 65 19 102q0 35 -34 47q-16 6 -66 6l7 25h695l-66 -227h-26q8 41 8 68q0 82 -86 105q-24 7 -118 7h-176l-106 -355h118q82 -1 122 27q38 26 77 102h25l-93 -326h-27q10 40 10 65q0 85 -126 85h-119l-78 -270 q-21 -73 -21 -96q0 -48 106 -56l-7 -24h-354z" />
<glyph unicode="G" horiz-adv-x="976" d="M94 346q0 228 170 398q172 172 407 172q96 0 173 -32q32 -13 46 -13q30 1 58 45h25l-67 -282h-25q6 50 6 73q-1 79 -71 125q-62 40 -144 39q-204 -1 -334 -193q-104 -152 -104 -340q0 -132 62 -216q70 -92 199 -92q58 0 151 32l66 230q14 48 14 76q0 56 -108 56h-18l7 26 h373l-7 -26q-83 0 -113 -50q-12 -18 -37 -104l-66 -226q-151 -64 -263 -65q-266 -1 -358 193q-42 88 -42 174z" />
<glyph unicode="H" horiz-adv-x="976" d="M-36 0l9 24q52 2 69 10q28 12 39 30q17 26 43 112l158 541q19 65 19 100t-34 47q-19 6 -69 6l8 25h354l-8 -25q-2 0 -4 1q-40 1 -61 -9q-31 -14 -45 -36q-20 -30 -44 -109l-64 -221h412l66 221q18 62 18 100q0 35 -34 47q-16 6 -66 6l6 25h360l-8 -25q-2 0 -4 1 q-42 1 -64 -9q-32 -14 -46 -36q-22 -30 -44 -109l-158 -541q-20 -68 -20 -96q0 -48 100 -56l-6 -24h-349l9 24q52 2 69 10q26 12 38 30q17 26 43 112l80 274h-415l-81 -274q-20 -64 -20 -96q0 -48 101 -56l-5 -24h-352z" />
<glyph unicode="I" horiz-adv-x="450" d="M-42 0l9 24q53 2 73 10q30 12 43 30q22 32 45 112l156 540q20 68 20 101q0 35 -35 47q-19 6 -69 6l8 25h346l-7 -25q-2 0 -4 1q-61 0 -93 -34q-6 -5 -11 -13q-15 -24 -39 -108l-156 -540q-21 -74 -21 -96q1 -34 35 -46q18 -6 76 -10l-8 -24h-368z" />
<glyph unicode="J" horiz-adv-x="600" d="M-46 100q0 36 22 64q24 28 62 28q68 0 67 -60q0 -22 -17 -42q-22 -25 -22 -34q0 -36 46 -36q68 0 124 58q29 30 51 72q25 50 43 114l33 114l99 339q22 75 21 93q1 54 -103 60l7 25h352l-7 -25q-76 0 -108 -39q-20 -24 -46 -114l-114 -395q-32 -110 -64 -170 q-97 -172 -288 -172q-64 0 -107 28q-51 32 -51 92z" />
<glyph unicode="K" horiz-adv-x="901" d="M-36 0l8 24q52 2 70 10q26 12 38 30q17 26 43 112l157 541q18 61 18 99q0 54 -82 54h-14l8 25h336l-6 -25q-42 0 -62 -8q-36 -18 -55 -63q-3 -8 -25 -82l-70 -230l318 239q64 48 84 76q12 17 11 31q1 31 -49 37l6 25h286l-5 -25q-81 -14 -145 -56l-128 -97l-274 -208 l222 -343q50 -76 80 -102q47 -40 120 -40l-7 -24h-381l6 24q82 8 82 61q0 21 -6 39q-4 12 -38 64l-182 284l-88 -296q-22 -74 -22 -96q0 -50 110 -56l-10 -24h-354z" />
<glyph unicode="L" horiz-adv-x="752" d="M-44 0l10 24q54 2 70 9q28 12 41 31q21 30 44 110l157 544q20 68 20 99q0 53 -86 53h-18l8 25h365l-5 -25q-96 0 -130 -50q-12 -19 -40 -111l-154 -535q-18 -62 -18 -85q0 -17 18 -31q12 -10 50 -9h87q93 -1 149 23q42 18 76 54q22 22 66 98l16 30h25l-87 -254h-664z" />
<glyph unicode="M" horiz-adv-x="1126" d="M-44 0l7 24h18q65 0 94 34q23 24 45 102l194 668q-34 36 -114 42l6 25h222l83 -721l519 721h219v-25q-72 -4 -84 -8q-45 -18 -79 -134l-166 -568q-14 -50 -14 -78q0 -58 96 -58h16l-6 -24h-376l6 24h18q50 0 76 15q40 21 82 170l148 519l-522 -728h-26l-84 728l-160 -554 q-20 -70 -20 -95q0 -49 104 -55l-7 -24h-295z" />
<glyph unicode="N" horiz-adv-x="901" d="M-38 0l10 24q53 2 70 10q28 12 40 30q20 28 44 113l177 623q-45 68 -147 70l8 25h224l276 -701l150 524q18 64 18 100q0 52 -81 52h-17l8 25h288l-8 -25q-2 0 -5 1q-41 1 -62 -9q-32 -14 -46 -36q-20 -30 -43 -108l-210 -738h-24l-298 754l-159 -557q-18 -62 -18 -97 q0 -48 93 -56l-6 -24h-282z" />
<glyph unicode="O" horiz-adv-x="976" d="M80 292q0 120 60 246q56 119 145 207q174 171 381 171q186 0 266 -154q38 -76 38 -156q0 -153 -86 -308.5t-216 -235.5q-134 -82 -278 -82q-202 0 -276 166q-34 76 -34 146zM217 260q0 -100 47 -165q53 -73 149 -73q125 0 239 131q80 92 132.5 231.5t52.5 261.5 q0 96 -48 158q-51 69 -145 69q-138 1 -254 -139q-62 -74 -112 -195q-61 -147 -61 -279z" />
<glyph unicode="P" horiz-adv-x="825" d="M-32 0l7 24q79 0 111 40q18 24 46 118l147 509q27 91 27 123q0 52 -102 56l7 25h353q112 0 186 -45q90 -54 90 -160q0 -156 -174 -236q-86 -40 -185 -40q-61 0 -157 22l-72 -244q-25 -86 -25 -115q0 -47 103 -53l-6 -24h-356zM334 478q74 -20 121 -20q156 0 223 120 q34 60 34 123q0 145 -166 145q-44 0 -108 -12z" />
<glyph unicode="Q" horiz-adv-x="976" d="M64 -230l270 214q-116 16 -186 104q-68 86 -68 204q0 152 90 306q89 150 221 232q135 86 267 86q196 0 274 -156q38 -76 38 -154q0 -153 -86 -308t-215 -235.5t-273 -82.5l-171 -138q41 8 75 7q54 0 181 -29q93 -20 161 -20q134 0 224 110l21 -11q-129 -184 -357 -184 q-56 1 -156 23q-152 34 -214 33q-37 0 -81 -19zM217 260q0 -100 47 -165q53 -73 149 -73q124 0 238 130q80 92 133 232t53 262q0 96 -48 158q-53 68 -146 69q-138 1 -254 -139q-63 -75 -112 -195q-60 -147 -60 -279z" />
<glyph unicode="R" horiz-adv-x="825" d="M-31 0l7 24q48 2 66 10q28 12 40 30q22 33 44 110l156 541q16 53 16 83q0 72 -92 73q-2 -1 -4 -1l8 25h292q276 1 276 -201q0 -98 -76 -169q-70 -63 -172 -80l87 -262q29 -87 53 -115q35 -40 113 -44l-7 -24h-214l-144 435h-4q-48 0 -98 10l-78 -271q-16 -53 -15 -89 q0 -27 19 -43q14 -12 80 -18l-6 -24h-347zM326 482q42 -6 76 -6q104 0 172 57q74 61 74 163q0 152 -166 152q-22 0 -50 -6z" />
<glyph unicode="S" d="M9 -20l74 332h23q-4 -48 -5 -80q0 -92 58.5 -148t150.5 -56q78 0 127 49t49 127q0 45 -20 81q-32 56 -166 193q-66 68 -84 98q-30 54 -30 112q0 101 75 166q72 62 174 62q36 0 70 -8q21 -4 75 -26q33 -14 42 -16t20 -2q36 0 66 52h24l-68 -298h-22q2 40 2 64 q0 84 -55 134q-53 48 -137 48q-61 0 -106 -36q-48 -38 -48 -98q0 -58 54 -124q18 -22 99 -100q78 -76 107 -116q50 -71 50 -145q0 -159 -140 -231q-66 -34 -146 -34q-70 0 -184 42q-26 10 -43 10q-39 0 -61 -52h-25z" />
<glyph unicode="T" horiz-adv-x="752" d="M94 0l8 24h17q51 0 79 17q36 21 78 165l186 636h-54q-141 0 -201 -78q-29 -38 -47 -106h-24l62 237h680l-74 -237h-24q12 52 12 92q0 48 -30 73q-22 19 -115 19h-71l-176 -617q-34 -117 -34 -143q0 -58 96 -58h30l-8 -24h-390z" />
<glyph unicode="U" horiz-adv-x="976" d="M144 230q0 40 7 84q5 28 26 100l89 304q18 64 18 97q0 49 -114 55l7 25h378l-7 -25q-48 -1 -70 -6q-36 -10 -56 -38q-18 -24 -36 -90l-92 -318q-24 -82 -28 -110q-8 -44 -8 -79q0 -88 66 -141q62 -49 152 -49q128 0 205 94q63 76 121 275l78 273q30 101 30 133 q0 50 -102 56l8 25h284l-7 -25q-82 0 -111 -44q-16 -24 -37 -96l-97 -332q-42 -146 -71 -204q-52 -106 -138 -162q-77 -52 -195 -52t-204 65q-96 71 -96 185z" />
<glyph unicode="V" horiz-adv-x="825" d="M169 870l7 25h352l-6 -25q-90 -2 -114 -50q-8 -16 -14 -82l-52 -534l349 476q57 78 71 108q10 20 10 36q0 42 -72 46l8 25h270l-7 -25q-31 -2 -51 -12q-68 -34 -186 -194l-505 -684h-23l73 744q5 54 5 78q0 68 -92 68h-23z" />
<glyph unicode="W" horiz-adv-x="1126" d="M164 870l8 25h335l-7 -25q-2 0 -5 1q-71 1 -95 -35q-16 -24 -26 -110l-50 -484l340 525v23q0 74 -115 80l5 25h363l-7 -25q-63 0 -85 -10q-34 -14 -44 -78q-18 -104 -33 -270q-22 -232 -26 -270l283 430q70 106 70 148q0 44 -70 50l5 25h266l-7 -25q-65 -5 -126 -72 q-20 -24 -87 -126l-450 -692h-24l72 692l-448 -692h-23l77 746q4 44 4 66q0 76 -100 78z" />
<glyph unicode="X" horiz-adv-x="825" d="M-90 0l7 24q57 6 91 26q50 30 144 124l260 261l-71 258q-28 101 -39 121q-30 52 -102 56l7 25h321l-8 -25q-68 0 -84 -22q-8 -12 -8 -26q0 -16 16 -74l60 -220l141 140q82 82 114 134q11 18 11 31q0 33 -79 37l7 25h303l-7 -25q-64 -9 -112 -38q-40 -24 -130 -117 l-232 -238l65 -239q9 -34 34 -106q25 -76 71 -96q24 -10 74 -12l-8 -24h-350l6 24q96 4 96 55q0 19 -17 81l-63 226l-210 -212q-60 -60 -73 -83q-7 -12 -7 -23q0 -20 20 -32q8 -6 56 -12l-7 -24h-297z" />
<glyph unicode="Y" horiz-adv-x="752" d="M122 0l8 24q55 2 74 10q30 12 44 32q22 30 46 108l79 262l-96 308q-22 70 -37 90q-24 30 -85 36l7 25h330l-8 -25q-61 -4 -70 -8q-33 -11 -33 -50q0 -28 19 -92l72 -244l171 238q66 92 66 119q0 31 -95 37l6 25h282l-6 -25q-42 -6 -56 -10q-22 -10 -46 -32 q-32 -28 -90 -108l-220 -303l-66 -221q-24 -82 -24 -115q0 -36 34 -48q24 -9 77 -9l-7 -24h-376z" />
<glyph unicode="Z" horiz-adv-x="752" d="M-2 0v19l664 828h-186q-102 -1 -134 -5q-78 -10 -121 -50q-36 -33 -60 -101h-23l66 204h622v-25l-665 -827h103q132 0 184 7q109 14 168 67q46 40 77 116h25l-77 -233h-643z" />
<glyph unicode="[" horiz-adv-x="526" d="M8 -270l348 1186h281l-15 -46h-184l-319 -1092h183l-13 -48h-281z" />
<glyph unicode="\" horiz-adv-x="375" d="M144 938h46l123 -958h-49z" />
<glyph unicode="]" horiz-adv-x="526" d="M-136 -270l14 46h186l318 1092h-182l12 48h281l-347 -1186h-282z" />
<glyph unicode="^" horiz-adv-x="570" d="M37 443l285 473h19l281 -473h-61l-231 387l-231 -387h-62z" />
<glyph unicode="_" d="M-11 -236h699v-56h-699v56z" />
<glyph unicode="`" horiz-adv-x="450" d="M238 926h146l72 -228h-22z" />
<glyph unicode="a" d="M32 134q0 110 66 228q63 112 157 180q76 56 143 56q82 0 108 -92l24 76l104 16l-143 -508q-2 -8 -2 -15q0 -24 20 -24q27 -1 91 89l22 -16q-94 -140 -182 -140q-56 0 -57 56q1 34 15 84l13 50q-146 -190 -261 -190q-58 0 -90 48q-28 42 -28 102zM138 158q0 -98 73 -98 t157 107q112 141 112 289q0 106 -80 107q-42 1 -90 -39q-68 -58 -120 -167t-52 -199z" />
<glyph unicode="b" d="M36 58l200 692q24 80 24 94q0 38 -56 37q-14 -1 -42 -5v26l228 36l-130 -456q110 116 210 116q78 0 122 -52q42 -50 42 -128q0 -106 -61 -212q-60 -104 -151.5 -163t-181.5 -59q-99 0 -204 74zM134 52q66 -36 117 -37q145 1 229 187q46 102 46 204q0 51 -25 87 q-29 41 -77 41q-72 0 -130 -58q-52 -52 -74 -128z" />
<glyph unicode="c" horiz-adv-x="600" d="M37 179q-1 106 59 204q56 93 149 153q95 62 187 62q144 0 144 -104q0 -40 -26 -70q-19 -22 -45 -22q-47 0 -47 46q0 24 25 48q22 22 22 36q-1 36 -67 36q-143 0 -236 -176q-54 -100 -54 -202q0 -146 142 -146q103 0 213 117l19 -17q-132 -160 -286 -160 q-92 0 -145.5 51.5t-53.5 143.5z" />
<glyph unicode="d" d="M26 150q0 108 68 221q64 105 160 170q82 57 150 57q66 0 112 -64l64 230q1 2 12 39q8 26 8 44q0 34 -46 34q-16 -1 -50 -5v25l228 37l-228 -778q-18 -64 -18 -84q0 -18 17 -18q9 0 21 8q22 16 74 80l23 -14q-107 -148 -187 -148q-52 0 -51 61q-1 38 19 101l26 82 q-158 -244 -278 -244q-60 0 -94 55q-30 47 -30 111zM136 164q0 -102 74 -102q82 0 182 160q94 152 94 248q0 94 -86 94q-97 0 -185 -156q-79 -138 -79 -244z" />
<glyph unicode="e" horiz-adv-x="600" d="M42 179q0 101 63 205q61 100 151 156q92 58 188 58q138 0 138 -96q0 -56 -44 -106q-57 -64 -169 -105q-75 -27 -208 -42q-5 -33 -5 -55q0 -60 42 -100.5t101 -40.5q85 -1 222 105l13 -18q-156 -156 -298 -156q-86 0 -140 54.5t-54 140.5zM166 281q98 13 158 39 q162 72 163 182q0 62 -67 62q-92 0 -168 -100q-60 -80 -86 -183z" />
<glyph unicode="f" horiz-adv-x="375" d="M-236 -225q0 52 58 52q42 0 42 -37q0 -14 -13 -27q-11 -10 -11 -14q0 -13 24 -13q66 0 115 70q24 34 46 102q11 35 49 183l116 447h-116l10 44q86 0 116 36q18 22 48 80q40 80 74 123q97 117 204 117q40 0 72 -19q38 -24 39 -61q0 -55 -54 -55q-47 1 -47 41q0 10 9 26 t9 20q0 20 -32 21q-90 0 -153 -136q-17 -37 -65 -193h96l-11 -44h-97l-72 -288q-48 -190 -97 -296q-116 -246 -271 -246q-38 0 -67 24q-21 17 -21 43z" />
<glyph unicode="g" d="M-36 -152q0 64 66 110q18 12 100 59q-30 25 -30 53q0 64 140 120q-66 14 -110 56q-48 46 -48 110q0 111 98 180q88 62 204 62q85 0 142 -42h178l-19 -68h-110q13 -36 13 -67q0 -105 -91 -169q-78 -56 -188 -62q-70 -20 -105 -50q-14 -11 -14 -21q0 -31 72 -47l128 -29 q174 -40 175 -140q0 -117 -157 -169q-76 -26 -170 -26q-182 0 -246 72q-28 33 -28 68zM51 -138q-1 -44 39 -72q56 -41 166 -41q75 0 140 23q89 31 89 92q-1 62 -121 86q-40 8 -205 50q-108 -50 -108 -138zM198 336q0 -48 28 -82q30 -34 78 -34q74 0 122 72q48 74 49 161 q0 113 -106 113q-76 0 -127 -80q-44 -70 -44 -150z" />
<glyph unicode="h" d="M27 0l241 837q0 43 -50 43q-8 0 -36 -4l-14 -2v26l228 38l-185 -640q89 134 133 183q102 117 184 117q74 0 74 -80q0 -42 -19 -106l-81 -276q-16 -52 -15 -56q1 -22 19 -22q8 0 20 10q38 28 74 80l20 -12q-62 -96 -130 -136q-30 -16 -52 -16q-56 0 -55 56q0 28 23 108 l76 264q14 50 14 78q0 30 -30 29q-56 1 -146 -117q-19 -24 -106 -166q-28 -46 -46 -100l-42 -136h-99z" />
<glyph unicode="i" horiz-adv-x="375" d="M58 41q0 24 16 81l86 296q22 72 22 91q0 33 -39 33q-14 0 -60 -8v26l228 38l-131 -464q-13 -46 -13 -56q0 -24 21 -23q10 1 24 11q37 29 76 84l23 -16q-45 -68 -105 -115q-46 -35 -86 -35q-62 0 -62 57zM236 794q0 66 66 66t66 -66t-66 -66t-66 66z" />
<glyph unicode="j" horiz-adv-x="375" d="M-232 -227q0 51 53 51q45 0 45 -34q0 -17 -16 -30q-9 -8 -9 -12l1 -4q4 -4 18 -4q110 0 159 169l148 507q22 74 22 82q-1 40 -51 41q-6 1 -44 -5v22l226 42l-171 -592q-86 -298 -297 -298q-84 0 -84 65zM243 792q1 66 67 66t66 -66t-66 -66t-67 66z" />
<glyph unicode="k" horiz-adv-x="600" d="M13 0l238 817q3 12 3 29q0 37 -48 37q-16 -1 -48 -7v24l229 38l-187 -648l74 64q126 106 161 154q12 16 12 26q1 14 -19 19q-12 3 -41 3h-23l7 26h289l-7 -26q-89 -5 -155 -53q-64 -49 -88 -69l-57 -50q14 -42 36 -132q47 -194 73 -194q12 0 27 10q33 26 73 80l24 -16 q-118 -148 -180 -148q-28 0 -44 22q-26 38 -88 307l-90 -79l-68 -234h-103z" />
<glyph unicode="l" horiz-adv-x="375" d="M52 41q0 23 22 97l178 620q22 76 22 87q0 36 -52 36q-16 -1 -46 -5v25l226 37l-226 -785q-16 -58 -16 -72q0 -23 22 -23q12 0 26 12q34 26 72 83l20 -21q-106 -148 -189 -148q-59 0 -59 57z" />
<glyph unicode="m" horiz-adv-x="976" d="M23 0l138 483q5 17 5 19q0 38 -47 37q-9 1 -47 -7l-6 24l227 42l-86 -298q58 106 98 158q107 140 195 140q76 0 77 -76q1 -30 -15 -84l-47 -168q108 202 204 282q53 46 105 46q70 0 70 -86q0 -39 -12 -81l-73 -257q-23 -84 -23 -93q0 -21 16 -21q6 0 23 14q39 28 71 76 l22 -14q-60 -96 -130 -136q-30 -16 -56 -16q-54 0 -54 55q0 31 28 127l60 212q20 72 22 82q2 12 2 24q0 35 -26 35q-28 -1 -58 -29q-90 -84 -170 -234q-52 -100 -98 -256h-100l113 400q19 65 19 86q0 35 -26 35q-22 0 -46 -16q-46 -31 -112 -125q-56 -82 -86 -147 q-18 -38 -79 -233h-98z" />
<glyph unicode="n" d="M26 0l120 413q21 73 21 90q-1 36 -41 36q-11 -1 -27 -3l-25 -4l-4 24l228 42l-88 -301q91 135 133 183q102 118 183 118q76 0 76 -79q0 -40 -19 -106l-81 -277q-14 -48 -14 -60q0 -22 17 -21q8 1 19 9q34 27 76 84l21 -12q-107 -152 -185 -152q-54 0 -53 55q1 31 23 109 l76 265q14 49 14 77q0 30 -30 30q-18 0 -44 -16q-94 -58 -213 -272q-31 -57 -51 -123l-34 -109h-98z" />
<glyph unicode="o" d="M40 192q0 102 58 200q56 94 146 148q94 58 181 58q89 0 145 -60q54 -58 55 -148q0 -104 -54.5 -199t-144.5 -150q-94 -57 -182 -57q-91 0 -147.5 58t-56.5 150zM148 148q0 -131 112 -131q108 -1 188 161q68 138 68 258q0 126 -108 127q-108 -1 -190 -159 q-70 -136 -70 -256z" />
<glyph unicode="p" d="M-149 -289l7 25q67 2 90 30q16 18 38 93l166 578q16 52 16 68q0 37 -42 37q-20 0 -54 -4v26l227 34l-45 -152q129 152 243 152q65 0 105 -53q36 -47 37 -115q1 -156 -117 -298q-124 -148 -276 -148q-59 0 -116 33l-48 -170q-14 -51 -14 -65q0 -30 32 -41q18 -5 68 -5 l-6 -25h-311zM145 70q41 -50 111 -50q71 0 139.5 76t108.5 203q22 66 22 132q0 109 -80 109t-156 -100q-60 -80 -88 -174z" />
<glyph unicode="q" d="M30 154q0 108 66 219q62 103 157 169q78 56 141 56q94 0 123 -96l21 74l103 22l-216 -746q-15 -50 -15 -66q0 -30 29 -42q19 -8 53 -8l-6 -25h-316l6 25q66 4 80 10q47 18 78 128l91 324q-147 -214 -262 -214q-64 0 -101 54q-32 48 -32 116zM142 165q0 -101 76 -101 q40 0 92 45q70 61 124 163q56 108 56 196q0 40 -24 68q-26 28 -64 29q-94 -1 -182 -157q-78 -140 -78 -243z" />
<glyph unicode="r" horiz-adv-x="526" d="M28 0l122 410q21 72 21 102t-45 30q-14 0 -51 -6l-5 24l228 38l-94 -322q115 196 209 276q53 46 87 46q46 0 47 -51q-1 -42 -23 -83q-16 -30 -45 -30q-33 0 -39 40q-2 22 -19 22q-11 0 -21 -5q-16 -7 -52 -51q-54 -65 -119 -168q-27 -44 -47 -98q-28 -78 -32 -91l-22 -83 h-100z" />
<glyph unicode="s" horiz-adv-x="526" d="M-12 -16l40 214h24q8 -184 144 -184q46 0 77 26q33 28 33 72q0 26 -11 48q-18 40 -76.5 108t-76.5 107q-18 35 -18 70q0 68 50 111q47 42 117 42q23 0 39 -4q10 -2 44 -16q31 -12 44 -12q28 0 48 32h24l-40 -204h-24q-6 170 -123 170q-89 0 -89 -77q0 -40 52 -97 q136 -149 136 -231q0 -77 -64 -127q-60 -48 -138 -48q-48 0 -110 22q-22 8 -33 8q-30 0 -45 -30h-24z" />
<glyph unicode="t" horiz-adv-x="375" d="M56 49q0 37 20 109l111 382h-100l7 26q82 22 134 72q42 38 94 123h29l-51 -179h104l-12 -42h-103l-113 -390q-18 -64 -19 -80q0 -24 18 -24q15 0 43 24q16 14 71 80l22 -16q-103 -150 -189 -150q-66 0 -66 65z" />
<glyph unicode="u" d="M40 456q48 76 104 113q42 29 78 29q56 0 56 -56q0 -38 -26 -128l-62 -212q-26 -88 -26 -111q0 -27 30 -27q58 0 150 118q58 74 96 140q42 70 82 210l14 50h100l-114 -394q-26 -88 -26 -111t16 -23q22 0 92 92l20 -16q-52 -83 -106 -121q-36 -25 -70 -25q-56 0 -56 52 q0 20 10 60q12 54 60 212q-198 -324 -328 -324q-74 0 -74 74q0 48 30 152l57 204q21 76 21 92q0 18 -18 18q-26 0 -90 -82z" />
<glyph unicode="v" horiz-adv-x="600" d="M29 556l191 42q21 -50 33 -100q18 -74 29 -177q4 -47 14 -218q82 90 98 113q90 122 101 138q21 32 31 62q6 22 6 38q0 14 -30 39t-30 50q0 55 56 55q30 0 51 -26q19 -24 19 -54q0 -34 -10 -64q-38 -110 -216 -316q-12 -14 -146 -154h-24q-16 418 -66 522q-16 34 -56 33 q-16 1 -46 -5z" />
<glyph unicode="w" horiz-adv-x="901" d="M23 530v23l189 45q40 -112 52 -340q4 -92 6 -108l272 448h24l46 -496q114 134 184 253q40 71 40 101q0 14 -7 25q-18 11 -46 41q-7 12 -7 26q0 50 54 50q64 0 64 -74q0 -36 -10 -64q-20 -58 -77 -147q-131 -202 -255 -329h-24l-43 457l-273 -457h-28q-4 282 -29 445 q-10 68 -33 89q-16 16 -50 16q-19 0 -49 -4z" />
<glyph unicode="x" horiz-adv-x="600" d="M-48 42q0 51 50 51q22 0 46 -21q17 -15 26 -15q8 1 20 11q30 24 85 106q50 76 70 122l-45 170q-28 78 -111 78q-15 0 -35 -2v24l176 32q32 -34 49 -70q12 -25 39 -124l58 87q18 29 56 61q32 28 58 38q16 8 36 8q62 0 62 -53q0 -25 -10 -34q-18 -17 -43 -17q-11 0 -29 6 q-30 10 -42 11q-48 1 -136 -151l55 -228q17 -72 38 -72q15 0 33 15q36 29 62 79l22 -12q-42 -78 -105 -129q-35 -29 -61 -29q-36 0 -59 42q-13 26 -57 222q-104 -180 -166 -231q-40 -33 -78 -33q-28 0 -48 20q-16 14 -16 38z" />
<glyph unicode="y" horiz-adv-x="600" d="M-108 -240q0 26 21 47t47 21q14 0 22 -6q6 -4 14 -24q8 -18 16 -19q4 1 14 7q38 24 85 71q61 63 93 105l-36 419q-7 80 -15 100q-18 49 -75 49q-14 0 -50 -4l-6 24l194 48q36 -60 48 -204l29 -324q42 50 115 150q36 50 90 137q32 52 40 74q4 11 3 22q-1 15 -29 23 q-44 14 -44 62q0 60 54 60q70 0 70 -91q0 -89 -172 -325q-102 -138 -246 -302q-152 -172 -231 -172q-51 0 -51 52z" />
<glyph unicode="z" horiz-adv-x="526" d="M-38 0v19l457 475h-190q-59 0 -73 -3q-42 -11 -74 -77h-24l56 168h418v-17l-456 -475h194q96 0 120 28q16 18 35 62h25l-58 -180h-430z" />
<glyph unicode="{" horiz-adv-x="540" d="M93 310l8 28q139 18 185 124q14 32 22 130q6 92 38 153q40 76 126 130q82 51 170 63l-7 -22q-144 -32 -188 -138q-16 -36 -22.5 -125t-25.5 -134q-58 -133 -247 -193q136 -58 136 -181q0 -53 -51.5 -153t-51.5 -142q1 -88 111 -118l-8 -24q-81 12 -130 62q-53 52 -53 132 q0 62 51 163t51 135q0 94 -114 110z" />
<glyph unicode="|" horiz-adv-x="371" d="M156 -292v1230h55v-1230h-55z" />
<glyph unicode="}" horiz-adv-x="540" d="M-101 -292l7 24q144 34 188 138q14 34 20 122t24 130q60 139 251 200q-136 56 -136 180q0 53 51.5 153.5t51.5 140.5q0 90 -111 120l7 22q80 -11 130 -60q54 -52 54 -132q0 -62 -52 -163.5t-52 -134.5q0 -94 116 -110l-8 -28q-138 -18 -186 -125q-14 -29 -21 -129 q-7 -94 -39 -154q-40 -76 -126 -130q-82 -52 -169 -64z" />
<glyph unicode="~" horiz-adv-x="731" d="M13 264q5 76 41 126q42 58 114 58q28 0 59 -10q20 -6 174 -67q120 -49 164 -49q111 0 123 124h30q-2 -77 -44 -128q-44 -56 -118 -56q-52 0 -246 80q-103 42 -145 43q-98 0 -123 -121h-29z" />
<glyph unicode="&#xa1;" horiz-adv-x="450" d="M87 -230q0 21 7.5 42t16.5 41l215 534h25l-98 -534l-11 -52q-4 -20 -15.5 -37t-26 -29.5t-30.5 -19.5t-30 -7q-24 0 -38.5 16t-14.5 46zM316 548q0 18 8 35t22 30.5t32 21.5t36 8q24 0 39 -14.5t15 -38.5q0 -18 -8.5 -34.5t-22 -29.5t-31.5 -21t-35 -8q-23 0 -39 14 t-16 37z" />
<glyph unicode="&#xa2;" d="M20 -250l185 282q-28 36 -39.5 71t-11.5 78q0 62 17 119.5t46 107t68 89.5t83 68.5t91 44t93 15.5q12 0 38 -3l168 253h46l-173 -265q26 -13 43 -25.5t27 -25.5t14.5 -26t4.5 -27q0 -18 -6 -33.5t-17 -27t-26 -18.5t-35 -7q-23 0 -37.5 11t-14.5 37q0 10 2.5 25t2.5 31 q1 9 -1 19l-272 -417q14 -12 24 -19.5t20 -12t22 -6.5t29 -2q20 0 40.5 4.5t40.5 12t37 17.5t31 22q26 22 84 97l17 -9q-28 -52 -63.5 -97t-77.5 -78t-88 -52t-94 -19h-2q-58 0 -100 23l-170 -257h-46zM278 258q0 -40 14 -93l266 406q-14 8 -37 8q-40 0 -75.5 -18 t-64.5 -48.5t-51 -71.5t-36 -88q-8 -26 -12 -48t-4 -43v-4z" />
<glyph unicode="&#xa3;" d="M56 39q0 27 12 51t32 42t45.5 29t53.5 11l55 -5q6 16 11 34.5t13 47.5t18 73.5t24 112.5h-128l18 63h128q8 43 15 74.5t14 56t14 43t15.5 35t20 33t26.5 36.5q26 34 56.5 59t63 43t66 27t66.5 9q35 0 60 -9t41 -24t23 -34t7 -40q0 -14 -5 -28.5t-15 -26.5t-23 -19.5 t-27 -7.5t-25 10q-11 9 -11 29q0 5 1.5 13.5t3.5 17.5t3.5 18t1.5 15q0 48 -61 49q-38 0 -69.5 -17t-57.5 -59.5t-48 -116.5q-24 -73 -42 -186h170l-18 -63h-170q-14 -43 -25 -77.5t-24 -67t-30 -65t-43 -71.5q56 -21 89 -32q33 -12 43 -14q20 -5 34 -6.5t33 -1.5 q29 0 53 6.5t45 20t38.5 33t33.5 46.5l22 -6q-22 -52 -51.5 -92t-63 -68t-69 -42t-69.5 -14q-16 0 -28 1t-24 4t-24 9.5t-27 18t-35 29.5t-46 44q-84 -106 -152 -106h-2q-27 0 -41.5 14.5t-14.5 40.5zM96 54q0 -15 9 -23.5t22 -8.5q10 0 22.5 4.5t25.5 15t27 28.5t28 44 q-12 8 -24 12.5t-26 5.5q-17 0 -32.5 -6t-26.5 -16.5t-18 -25t-7 -30.5z" />
<glyph unicode="&#xa4;" d="M66 167l124 96q-26 44 -26 100q0 36 9 72.5t26.5 71.5t42.5 67q24 33 56 62l-67 93l47 37l70 -93q21 14 47.5 26.5t54.5 21.5t55 14t50 5q22 0 45.5 -4t44.5 -12t41 -21t34 -30l122 93l28 -37l-122 -93q26 -52 25 -108q0 -70 -34.5 -137t-100.5 -128l68 -96l-50 -36 l-66 94q-108 -68 -198 -68q-27 0 -54.5 5.5t-51.5 14.5t-42 21t-28 27l-123 -94zM219 380q0 -38 13.5 -69t37.5 -53.5t57 -35t71 -12.5t77 12t74 33t66 49t53.5 61.5t35.5 70.5q13 36 13 74q0 40 -13.5 73t-37.5 56t-56 35q-34 12 -72 12t-76 -12t-73.5 -32.5t-66.5 -49 t-53.5 -62.5t-36 -72t-13.5 -78z" />
<glyph unicode="&#xa5;" d="M68 232l15 49h280l27 95l-2 23h-270l14 49h248l-44 327q-4 28 -10 46t-15 29t-23 15.5t-33 4.5l7 25h292l-7 -25q-26 0 -43.5 -5t-28.5 -12.5t-16 -17t-5 -19.5v-12t2 -14l40 -342l239 332q16 24 22.5 38t6.5 20q0 4 -0.5 9t-5 9t-13.5 7t-27 5l-17 2l7 25h228l-7 -25 q-22 0 -39.5 -5t-33.5 -17t-32 -32q-16 -19 -38 -48l-236 -320h256l-14 -49h-276l-8 -10l-32 -108h281l-15 -49h-280l-21 -71q-10 -34 -15.5 -55.5t-5.5 -31.5t5 -19t14 -15t21 -10q14 -3 28 -3h26l-7 -27h-340l7 27h22q31 0 50.5 4.5t33.5 18.5t24.5 40.5t23.5 70.5l20 71 h-280z" />
<glyph unicode="&#xa6;" horiz-adv-x="271" d="M20 -292l144 490h54l-142 -490h-56zM237 449l143 490h56l-144 -490h-55z" />
<glyph unicode="&#xa7;" d="M116 -153q0 15 4.5 32t14 31t23.5 23.5t32 9.5q14 0 25 -9.5t11 -26.5q0 -12 -6 -27.5t-12.5 -30.5t-11.5 -27q-6 -12 -6 -20q0 -10 5 -17.5t14.5 -12.5t21 -7.5t24.5 -2.5q29 0 56.5 13.5t49 35t35 47.5t13.5 52q0 32 -20.5 68t-66.5 78q-34 32 -58.5 60.5t-40.5 55 t-23.5 52.5t-7.5 52q0 36 14 75t42 75.5t69 70t95 59.5q-19 33 -29.5 61t-10.5 54q0 31 9.5 61t27 57t41.5 50t51.5 39.5t58 26t61.5 9.5q29 0 53 -8t41 -23t26.5 -35t9.5 -44q0 -14 -4.5 -31t-13.5 -31t-23.5 -23.5t-33.5 -9.5q-16 0 -27 9.5t-11 26.5q0 6 2 12.5t6 15.5 t10 21q4 12 10 29q4 11 4 19q0 19 -14 31.5t-43 12.5q-30 0 -57.5 -13.5t-49.5 -36t-35 -50.5q-13 -30 -13 -60q0 -27 19 -58.5t56 -64.5q36 -33 62.5 -62t43.5 -57t26 -55t9 -54q0 -35 -13.5 -73t-41 -75t-68.5 -71.5t-97 -63.5q22 -36 31 -63t9 -53q0 -32 -10.5 -62 t-28.5 -57t-42 -49t-52 -38t-58 -25q-29 -9 -59 -9q-28 0 -52 8t-41 23t-26 35.5t-9 44.5zM276 345q0 -18 6 -37t18 -39.5t31 -42.5t46 -48l18 -18t15 -16t13.5 -16t14.5 -16q72 36 110 82t38 102q0 18 -4 36t-14 37.5t-28.5 42.5t-46.5 51q-21 22 -37 39q-18 18 -30 34 q-73 -38 -111.5 -85.5t-38.5 -105.5z" />
<glyph unicode="&#xa8;" horiz-adv-x="450" d="M34 790q0 18 9 35t22 30t30 20.5t35 7.5q23 0 38.5 -14.5t15.5 -36.5q0 -18 -9 -35t-23 -30t-30 -21q-18 -7 -34 -7q-24 0 -39 14t-15 37zM266 790q0 17 9 33.5t22.5 30t31 21.5t34.5 8q11 0 21 -4t17 -10.5t11 -16.5t4 -20q0 -19 -9 -36t-22.5 -29.5t-30.5 -20.5 q-18 -7 -34 -7q-11 0 -20.5 3.5t-17 10.5t-12 16t-4.5 21z" />
<glyph unicode="&#xa9;" horiz-adv-x="1027" d="M26 319q0 68 23 138.5t65 136.5t99.5 125t127 102.5t147.5 68.5q78 26 162 26q74 0 138 -23t111 -67t74.5 -107.5t27.5 -143.5q0 -70 -23.5 -140.5t-65.5 -137t-100.5 -124t-128 -100.5t-147.5 -68t-159 -25q-76 0 -140 23t-110.5 67t-73.5 106.5t-27 142.5zM68 328 q0 -69 23.5 -125.5t66 -97t101.5 -63t129 -22.5q54 0 111 14t112 41t106.5 65t95 85t76.5 103.5t52 119.5q8 30 12.5 60t4.5 58q0 70 -23.5 127t-66 98t-101.5 62.5t-129 21.5q-59 0 -124 -18.5t-128.5 -53.5t-121 -84t-101 -109.5t-69.5 -132t-26 -149.5zM196 358 q0 50 16.5 98t46 91.5t69.5 80.5t88 63.5t101 42t109 15.5h2q18 0 29 -0.5t22 -3t25 -7.5t38 -14q8 -3 14 -3.5t9 -1.5q12 0 20.5 5.5t21.5 24.5h26l-41 -185h-26q0 40 -11 69t-31 48t-48 28.5t-64 9.5q-50 0 -94 -17.5t-81 -50.5t-66 -80.5t-46 -107.5q-21 -73 -21 -123 q0 -38 11 -65.5t32 -46.5t50 -28.5t67 -9.5q130 0 236 107l22 -13q-130 -134 -292 -134q-52 0 -95 15t-74 42t-48 65.5t-17 85.5z" />
<glyph unicode="&#xaa;" horiz-adv-x="373" d="M-40 581q0 28 16.5 53t51 48.5t87.5 46.5t127 50q14 47 14 73q0 22 -13 32.5t-37 10.5q-62 0 -79 -59q-8 -29 -22 -42q-15 -14 -33 -14q-12 0 -19.5 7.5t-7.5 19.5q0 20 13.5 39t37.5 34t58 24.5t76 9.5q30 0 51.5 -6t35 -15t20.5 -20t9 -22v-6q0 -12 -3 -28.5t-9 -37.5 l-42 -144q-6 -18 -8 -28.5t-3 -14.5v-1q0 -6 3.5 -9.5t7.5 -3.5q8 0 44 19l-9 -31q-28 -16 -45 -26t-28.5 -15t-19.5 -6.5t-20 -1.5q-15 0 -23 9.5t-8 35.5q0 4 0.5 8.5t0.5 9.5q-47 -28 -88.5 -44.5t-69.5 -16.5q-14 0 -26 4.5t-21 13t-14 20t-5 24.5zM61 616 q0 -19 13 -29.5t32 -10.5q16 0 36 7t50 22l43 149q-46 -14 -79 -30t-54 -34t-31 -37t-10 -37z" />
<glyph unicode="&#xab;" d="M42 306l346 311h38l-252 -311l70 -311h-37zM335 306l351 311h38l-251 -311l70 -311h-39z" />
<glyph unicode="&#xac;" horiz-adv-x="762" d="M47 526l16 54h713l-78 -268h-54l63 214h-660z" />
<glyph unicode="&#xad;" horiz-adv-x="450" d="M40 253l30 100h340l-29 -100h-341z" />
<glyph unicode="&#xae;" horiz-adv-x="1027" d="M26 319q0 68 23 138.5t65 136.5t99.5 125t127 102.5t147.5 68.5q78 26 162 26q74 0 138 -23t111 -67t74.5 -107.5t27.5 -143.5q0 -70 -23.5 -140.5t-65.5 -137t-100.5 -124t-128 -100.5t-147.5 -68t-159 -25q-76 0 -140 23t-110.5 67t-73.5 106.5t-27 142.5zM68 328 q0 -69 23.5 -125.5t66 -97t101.5 -63t129 -22.5q54 0 111 14t112 41t106.5 65t95 85t76.5 103.5t52 119.5q8 30 12.5 60t4.5 58q0 70 -23.5 127t-66 98t-101.5 62.5t-129 21.5q-59 0 -124 -18.5t-128.5 -53.5t-121 -84t-101 -109.5t-69.5 -132t-26 -149.5zM164 164l6 22 q24 0 39 3t24.5 13t16.5 27.5t16 47.5l100 345q14 46 16 58q0 14 -10.5 22.5t-39.5 9.5l6 23h256q40 0 69 -8.5t49 -22.5t30 -34.5t10 -44.5q0 -30 -11.5 -57.5t-35 -51.5t-60.5 -43t-89 -32l81 -197q7 -17 13.5 -28t14 -17.5t16 -9.5t19.5 -3l-6 -22h-122l-116 268h-50 l-60 -204v-4v-2q0 -9 2 -16t9 -11.5t20 -6.5t35 -2l-6 -22h-242zM414 460q57 0 100 11t71.5 32t43.5 50t15 65q0 20 -8 36.5t-21 28t-32 17.5t-41 6q-24 0 -58 -10z" />
<glyph unicode="&#xaf;" d="M-19 965l17 55h698l-16 -55h-699z" />
<glyph unicode="&#xb0;" horiz-adv-x="541" d="M56 652q0 33 11 65.5t30 61.5t44.5 54t55.5 43t62.5 28.5t66.5 10.5t62 -10.5t48.5 -29.5t32 -45.5t11.5 -58.5t-11 -64.5t-30 -61.5t-45 -54t-56 -43t-64 -28q-32 -11 -66 -11q-32 0 -60 10.5t-48.5 29.5t-32 45t-11.5 58zM114 670q0 -24 8 -43t23 -33t35 -21.5t44 -7.5 q36 0 71 16.5t63.5 42.5t46 60t17.5 68q0 24 -9 44t-24 34t-35 21.5t-44 7.5t-48 -7.5t-46 -20.5t-40.5 -30.5t-32.5 -38.5t-21.5 -44.5t-7.5 -47.5z" />
<glyph unicode="&#xb1;" horiz-adv-x="742" d="M-89 93l16 54h329l80 275h-329l16 55h329l96 328h53l-96 -328h330l-16 -55h-330l-81 -275h330l-16 -54h-711z" />
<glyph unicode="&#xb2;" horiz-adv-x="405" d="M-56 438l5 19q89 58 154 104.5t106.5 86.5t61.5 73.5t20 64.5q0 29 -19.5 48t-53.5 19q-76 0 -132 -77h-29q13 30 33 56t46 44t56 28t64 10q28 0 51.5 -7.5t40 -20.5t25.5 -30.5t9 -37.5q0 -30 -18 -63t-56 -71t-97.5 -83t-142.5 -99h123q32 0 51 2t31 6t19.5 11t17.5 18 h30l-71 -101h-325z" />
<glyph unicode="&#xb3;" horiz-adv-x="405" d="M-30 464q0 7 4.5 13.5t11 11.5t15.5 8t17 3q7 0 19.5 -5l27.5 -11t30 -11t27 -5q22 0 43 10t38 26t27.5 36t10.5 41q0 25 -11 41t-27 26t-34.5 13.5t-32.5 3.5h-20l6 18q29 0 56.5 11.5t49 29.5t34.5 40t13 44q0 26 -17 38q-18 13 -46 13q-56 0 -113 -58l-23 10 q22 28 44.5 47.5t45 32t45.5 18t48 5.5q26 0 45.5 -6t32.5 -17t20 -25t7 -30q0 -26 -24 -56t-78 -66q32 -13 49 -34.5t17 -51.5q0 -39 -21.5 -75.5t-58.5 -64t-86.5 -44t-107.5 -16.5q-39 0 -61.5 8.5t-22.5 27.5z" />
<glyph unicode="&#xb4;" horiz-adv-x="450" d="M122 690l136 227h148l-262 -227h-22z" />
<glyph unicode="&#xb5;" horiz-adv-x="779" d="M-26 -246q0 10 3 21.5t9 27t17 36.5t27 50q21 39 33.5 66t20 47.5t12 37.5t10.5 36l14 49l140 480h109l-103 -352q-14 -46 -20 -77.5t-6 -49.5v-4q0 -26 18 -42q18 -17 46 -17q77 0 181 88l133 454h109l-127 -432q-10 -35 -15 -55.5t-5 -33.5t8 -22t22 -9q22 0 41 21.5 t37 60.5h28q-11 -36 -29.5 -64.5t-41.5 -48t-50 -30t-55 -10.5q-34 0 -54 17t-20 55q0 22 6 53q-38 -34 -71 -57.5t-62.5 -38.5t-56.5 -22q-28 -7 -54 -7q-18 0 -30.5 3t-22.5 9t-17.5 17t-14.5 27l-4 -14q-1 -2 -1.5 -5t-1.5 -6l-3 -6q-8 -27 -14 -65.5t-10 -91.5 q-2 -28 -8.5 -54t-18 -45.5t-28 -31t-40.5 -11.5q-18 0 -29 12t-11 34z" />
<glyph unicode="&#xb6;" horiz-adv-x="613" d="M80 568q0 54 17.5 101t46.5 84t65.5 65t74.5 44q36 16 80 24t98 9h326l-10 -36h-88l-337 -1151h-48l337 1151h-124l-336 -1151h-48l202 689q-68 0 -117 10.5t-80 31.5t-45 53.5t-14 75.5z" />
<glyph unicode="&#xb7;" horiz-adv-x="338" d="M92 426q0 18 8.5 35t22 30t31 21.5t36.5 8.5q26 0 40.5 -14t14.5 -38q0 -18 -8.5 -34.5t-22.5 -30.5t-31 -22t-35 -8q-24 0 -40 14t-16 38z" />
<glyph unicode="&#x2219;" horiz-adv-x="338" d="M92 426q0 18 8.5 35t22 30t31 21.5t36.5 8.5q26 0 40.5 -14t14.5 -38q0 -18 -8.5 -34.5t-22.5 -30.5t-31 -22t-35 -8q-24 0 -40 14t-16 38z" />
<glyph unicode="&#xb8;" horiz-adv-x="450" d="M84 -253l9 29q7 -2 15 -2q8 -1 16 -1q18 0 36.5 7.5t33.5 20t24.5 28t9.5 29.5q0 16 -12 26t-30 10l-16 -1l107 118h40l-49 -53q30 -7 44.5 -24.5t14.5 -42.5q0 -28 -15 -54.5t-40.5 -47.5t-57.5 -33q-32 -13 -68 -13q-21 0 -36.5 1.5t-25.5 2.5z" />
<glyph unicode="&#xb9;" horiz-adv-x="405" d="M30 438l6 21q21 0 33.5 1t19.5 3.5t10 5t6 6.5t8 15.5t10 32.5l72 247q8 29 11.5 44.5t3.5 21.5q0 12 -14 15q-13 0 -49 -13l-5 18l152 58h24l-115 -391q-6 -22 -8 -31q-3 -10 -3 -18q0 -3 2.5 -5.5t8.5 -4.5t17.5 -3.5t31.5 -1.5l-7 -21h-215z" />
<glyph unicode="&#xba;" horiz-adv-x="419" d="M8 650q0 36 10 69.5t29 63t44 53.5t54.5 41.5t62 27t64.5 9.5t58 -10t44 -27.5t28.5 -42t10.5 -55.5q0 -32 -10.5 -63.5t-29.5 -60.5t-44 -54t-55 -43t-62 -28.5t-65 -10.5q-30 0 -55.5 9.5t-44 26t-29 41t-10.5 54.5zM108 660q0 -22 4 -41t12 -34t21 -23.5t32 -8.5 q39 0 71 29q34 30 52 93q8 28 12 52t4 46t-4.5 42.5t-13.5 36t-22.5 24.5t-31.5 9q-20 0 -44 -14.5t-44 -42.5t-34 -70t-14 -98z" />
<glyph unicode="&#xbb;" d="M-48 -5l250 310l-70 312h40l168 -312l-350 -310h-38zM250 -5l252 310l-70 312h36l166 -312l-347 -310h-37z" />
<glyph unicode="&#xbc;" horiz-adv-x="1014" d="M38 -36l894 950h60l-895 -950h-59zM98 438l6 21q24 0 38 0.5t22.5 6t13.5 18.5q4 14 12 39l78 267q10 34 10 46q0 6 -3 10t-12 5q-11 0 -47 -13l-6 18l152 58h24l-114 -391q-6 -19 -8 -31q-3 -12 -3 -16t2.5 -7t8.5 -5.5t17 -3.5t31 -1l-6 -21h-216zM515 94l14 49 l338 307h55l-88 -302h72l26 -54h-114l-35 -120h-77l35 120h-226zM586 148h170l62 208z" />
<glyph unicode="&#xbd;" horiz-adv-x="1014" d="M22 -36l894 950h60l-895 -950h-59zM98 438l6 21q24 0 38 0.5t22.5 6t13.5 18.5q4 14 12 39l78 267q10 34 10 46q0 6 -3 10t-12 5q-11 0 -47 -13l-6 18l152 58h24l-114 -391q-6 -19 -8 -31q-3 -12 -3 -16t2.5 -7t8.5 -5.5t17 -3.5t31 -1l-6 -21h-216zM484 -26l6 19 q90 58 154 104.5t106 85.5t61 73t19 66q0 30 -19.5 48.5t-52.5 18.5q-38 0 -70 -19q-34 -18 -62 -58h-30q14 30 34.5 56t46.5 44t56.5 28t63.5 10q28 0 51.5 -8t39.5 -21t25 -31t9 -38q0 -28 -17.5 -60.5t-55.5 -70.5t-97.5 -83.5t-143.5 -99.5h124q30 0 47.5 1t29.5 5 t20.5 11.5t20.5 19.5h30l-70 -101h-326z" />
<glyph unicode="&#xbe;" horiz-adv-x="1014" d="M30 -36l894 950h58l-893 -950h-59zM36 463q0 8 4.5 14.5t11.5 11.5t15.5 8t16.5 3q6 0 19 -5t27.5 -11t30 -11t27.5 -5q23 0 44.5 10t38.5 27t27 38t10 42q0 36 -29.5 58t-95.5 22l5 18q30 0 57.5 11.5t49 29.5t34.5 40t13 44q0 24 -16 37.5t-46 13.5q-54 0 -114 -58 l-22 10q42 54 86 78.5t96 24.5q25 0 44.5 -6t32.5 -16t20 -24t7 -30q0 -28 -24 -57.5t-78 -66.5q34 -13 50 -36q16 -24 16 -52q0 -38 -21 -73t-58 -63t-87 -45q-48 -17 -106 -17q-41 0 -63.5 9t-22.5 26zM515 94l14 49l338 307h55l-88 -302h72l-16 -54h-72l-35 -120h-76 l35 120h-227zM586 148h172l60 208z" />
<glyph unicode="&#xbf;" horiz-adv-x="600" d="M-25 -138q0 19 4.5 39.5t12.5 41t18 40t22 35.5q23 34 57.5 68.5t83.5 77.5q45 38 75.5 67t51.5 56.5t34.5 57t25.5 68.5h26q-12 -41 -25.5 -71t-29.5 -59q-7 -13 -17 -29t-24 -35.5t-32 -44t-42 -53.5q-35 -44 -58 -82.5t-37 -71t-20 -60t-6 -50.5q0 -26 8.5 -46.5 t23.5 -34.5t36 -21t47 -7q32 0 59 9t47 24t32 33t12 36q0 8 -2 18t-4 21t-4 21t-2 18q0 14 6 27t15.5 23t22.5 16q14 6 28 6q10 0 18.5 -4t15 -12t11 -19.5t4.5 -26.5q0 -28 -11 -56t-31.5 -54t-48 -48t-61 -38t-71.5 -25t-79 -9q-45 0 -80.5 11t-60 31.5t-38 49t-13.5 62.5 zM337 548q0 18 8.5 35t22.5 31t31 22t35 8q11 0 21.5 -4t18 -11t12 -17t4.5 -22q0 -16 -8.5 -33t-22.5 -30t-31.5 -21.5t-35.5 -8.5q-24 0 -39.5 13.5t-15.5 37.5z" />
<glyph unicode="&#xc0;" horiz-adv-x="825" d="M-66 0l8 24q58 2 114 59q20 22 82 105l535 728h23l-68 -745q-6 -59 -5 -69q0 -26 10 -40q26 -38 106 -38l-7 -24h-352l7 24h15q42 0 70 19q20 13 30 41q6 18 14 97l10 113h-256l-91 -123q-47 -64 -47 -94q0 -51 74 -53l-8 -24h-264zM306 342h226l34 354zM481 1196h146 l72 -228h-22z" />
<glyph unicode="&#xc1;" horiz-adv-x="825" d="M-66 0l8 24q58 2 114 59q20 22 82 105l535 728h23l-68 -745q-6 -59 -5 -69q0 -26 10 -40q26 -38 106 -38l-7 -24h-352l7 24h15q42 0 70 19q20 13 30 41q6 18 14 97l10 113h-256l-91 -123q-47 -64 -47 -94q0 -51 74 -53l-8 -24h-264zM306 342h226l34 354zM622 960l136 227 h148l-262 -227h-22z" />
<glyph unicode="&#xc2;" horiz-adv-x="825" d="M-66 0l8 24q58 2 114 59q20 22 82 105l535 728h23l-68 -745q-6 -59 -5 -69q0 -26 10 -40q26 -38 106 -38l-7 -24h-352l7 24h15q42 0 70 19q20 13 30 41q6 18 14 97l10 113h-256l-91 -123q-47 -64 -47 -94q0 -51 74 -53l-8 -24h-264zM306 342h226l34 354zM500 956l192 218 h122l57 -218h-20l-137 140l-195 -140h-19z" />
<glyph unicode="&#xc3;" horiz-adv-x="825" d="M-66 0l8 24q58 2 114 59q20 22 82 105l535 728h23l-68 -745q-6 -59 -5 -69q0 -26 10 -40q26 -38 106 -38l-7 -24h-352l7 24h15q42 0 70 19q20 13 30 41q6 18 14 97l10 113h-256l-91 -123q-47 -64 -47 -94q0 -51 74 -53l-8 -24h-264zM306 342h226l34 354zM480 984 q12 44 31.5 76t43 53t49.5 31.5t52 10.5q14 0 25 -1.5t24 -7.5t29 -17q14 -11 36 -29q42 -36 71 -37q10 0 20.5 3.5t21.5 13.5t23 28t26 47h20q-13 -42 -32.5 -74.5t-43.5 -54.5t-50 -33.5t-52 -11.5q-18 0 -33 5t-31 14.5t-34.5 23.5t-42.5 32q-8 6 -13.5 9.5t-10 6t-9 3 t-11.5 0.5q-12 0 -21 -2t-18.5 -10.5t-21 -27t-28.5 -51.5h-20z" />
<glyph unicode="&#xc4;" horiz-adv-x="825" d="M-66 0l8 24q58 2 114 59q20 22 82 105l535 728h23l-68 -745q-6 -59 -5 -69q0 -26 10 -40q26 -38 106 -38l-7 -24h-352l7 24h15q42 0 70 19q20 13 30 41q6 18 14 97l10 113h-256l-91 -123q-47 -64 -47 -94q0 -51 74 -53l-8 -24h-264zM306 342h226l34 354zM529 1030 q0 18 9 35t22 30t30 20.5t35 7.5q23 0 38.5 -14.5t15.5 -36.5q0 -18 -9 -35t-23 -30t-30 -21q-18 -7 -34 -7q-24 0 -39 14t-15 37zM761 1030q0 17 9 33.5t22.5 30t31 21.5t34.5 8q11 0 21 -4t17 -10.5t11 -16.5t4 -20q0 -19 -9 -36t-22.5 -29.5t-30.5 -20.5q-18 -7 -34 -7 q-11 0 -20.5 3.5t-17 10.5t-12 16t-4.5 21z" />
<glyph unicode="&#xc5;" horiz-adv-x="825" d="M-66 0l8 24q58 2 114 59q20 22 82 105l535 728h23l-68 -745q-6 -59 -5 -69q0 -26 10 -40q26 -38 106 -38l-7 -24h-352l7 24h15q42 0 70 19q20 13 30 41q6 18 14 97l10 113h-256l-91 -123q-47 -64 -47 -94q0 -51 74 -53l-8 -24h-264zM306 342h226l34 354zM602 1045 q0 30 15 59.5t39 52.5t55 38t63 15q20 0 37.5 -6t30 -18t19.5 -28t7 -36q0 -32 -15 -62t-40 -53t-56 -36.5t-61 -13.5q-20 0 -37.5 6.5t-30 18t-19.5 27.5t-7 36zM651 1060q0 -26 16 -41.5t43 -15.5q20 0 40 9.5t35 24.5t25 33t10 38q0 26 -17 41t-43 15q-20 0 -40 -9 t-35 -23t-24.5 -33t-9.5 -39z" />
<glyph unicode="&#xc6;" horiz-adv-x="1202" d="M-154 0l8 24q23 0 43.5 7t43.5 25t51 48.5t66 76.5l430 509q48 56 70 89t22 50q0 8 -5 15.5t-17 13.5t-31 9.5t-47 3.5l8 24h733l-51 -197h-22q6 34 6 60q0 33 -10.5 52.5t-36.5 29.5q-16 6 -88 6h-218l-109 -354h170q36 0 65 7t52 23t39 40t26 60h24l-95 -310h-24 q4 21 5.5 37t1.5 28q0 16 -3 28t-13.5 20.5t-32.5 13.5q-23 5 -61 5h-170l-91 -296q-17 -56 -17 -69v-3q0 -4 2 -9t8 -9t19 -6.5t33 -2.5h120q54 0 98.5 10t82 31.5t71.5 54.5t68 80h25l-141 -225h-672l8 24h34q53 0 90 33q22 20 48 101l58 189h-262l-129 -154 q-23 -28 -39 -48.5t-25.5 -36t-14 -25.5t-4.5 -15q0 -8 3 -14.5t12 -12t26 -10t47 -7.5l-8 -24h-280zM300 395h234l140 451z" />
<glyph unicode="&#xc7;" horiz-adv-x="901" d="M91 334q0 152 80.5 289t213.5 213q137 80 277 80q64 0 146 -32q34 -14 52 -13q28 1 66 45h25l-67 -290h-24l-2 72q-1 34 -15 71q-25 63 -96 89q-37 12 -81 13q-118 -1 -206 -65q-113 -82 -177 -232q-53 -124 -53 -252q0 -126 73 -205q75 -80 201 -80q176 0 296 167h31 q-141 -224 -373 -224q-230 0 -322 174q-44 84 -45 180zM308 -253l9 29q7 -2 15 -2q8 -1 16 -1q18 0 36.5 7.5t33.5 20t24.5 28t9.5 29.5q0 16 -12 26t-30 10l-16 -1l107 118h40l-49 -53q30 -7 44.5 -24.5t14.5 -42.5q0 -28 -15 -54.5t-40.5 -47.5t-57.5 -33q-32 -13 -68 -13 q-21 0 -36.5 1.5t-25.5 2.5z" />
<glyph unicode="&#xc8;" horiz-adv-x="825" d="M-30 0l8 24q52 2 70 10q26 12 38 30q16 26 42 114l157 540q19 64 19 99q0 53 -86 53h-14l8 25h642l-54 -216h-25q5 30 5 51q0 74 -83 105q-32 12 -146 12h-113l-102 -354h83q86 0 126 25q43 28 73 104h25l-92 -325h-27q12 41 12 70q0 53 -42 71q-20 8 -86 8h-84l-87 -296 q-13 -44 -13 -66q0 -17 17 -30q12 -9 56 -9h79q128 0 206 45.5t140 158.5h24l-84 -249h-692zM426 1196h146l72 -228h-22z" />
<glyph unicode="&#xc9;" horiz-adv-x="825" d="M-30 0l8 24q52 2 70 10q26 12 38 30q16 26 42 114l157 540q19 64 19 99q0 53 -86 53h-14l8 25h642l-54 -216h-25q5 30 5 51q0 74 -83 105q-32 12 -146 12h-113l-102 -354h83q86 0 126 25q43 28 73 104h25l-92 -325h-27q12 41 12 70q0 53 -42 71q-20 8 -86 8h-84l-87 -296 q-13 -44 -13 -66q0 -17 17 -30q12 -9 56 -9h79q128 0 206 45.5t140 158.5h24l-84 -249h-692zM485 960l136 227h148l-262 -227h-22z" />
<glyph unicode="&#xca;" horiz-adv-x="825" d="M-30 0l8 24q52 2 70 10q26 12 38 30q16 26 42 114l157 540q19 64 19 99q0 53 -86 53h-14l8 25h642l-54 -216h-25q5 30 5 51q0 74 -83 105q-32 12 -146 12h-113l-102 -354h83q86 0 126 25q43 28 73 104h25l-92 -325h-27q12 41 12 70q0 53 -42 71q-20 8 -86 8h-84l-87 -296 q-13 -44 -13 -66q0 -17 17 -30q12 -9 56 -9h79q128 0 206 45.5t140 158.5h24l-84 -249h-692zM370 966l192 218h122l57 -218h-20l-137 140l-195 -140h-19z" />
<glyph unicode="&#xcb;" horiz-adv-x="825" d="M-30 0l8 24q52 2 70 10q26 12 38 30q16 26 42 114l157 540q19 64 19 99q0 53 -86 53h-14l8 25h642l-54 -216h-25q5 30 5 51q0 74 -83 105q-32 12 -146 12h-113l-102 -354h83q86 0 126 25q43 28 73 104h25l-92 -325h-27q12 41 12 70q0 53 -42 71q-20 8 -86 8h-84l-87 -296 q-13 -44 -13 -66q0 -17 17 -30q12 -9 56 -9h79q128 0 206 45.5t140 158.5h24l-84 -249h-692zM410 1015q0 18 9 35t22 30t30 20.5t35 7.5q23 0 38.5 -14.5t15.5 -36.5q0 -18 -9 -35t-23 -30t-30 -21q-18 -7 -34 -7q-24 0 -39 14t-15 37zM642 1015q0 17 9 33.5t22.5 30 t31 21.5t34.5 8q11 0 21 -4t17 -10.5t11 -16.5t4 -20q0 -19 -9 -36t-22.5 -29.5t-30.5 -20.5q-18 -7 -34 -7q-11 0 -20.5 3.5t-17 10.5t-12 16t-4.5 21z" />
<glyph unicode="&#xcc;" horiz-adv-x="450" d="M-42 0l9 24q53 2 73 10q30 12 43 30q22 32 45 112l156 540q20 68 20 101q0 35 -35 47q-19 6 -69 6l8 25h346l-7 -25q-2 0 -4 1q-61 0 -93 -34q-6 -5 -11 -13q-15 -24 -39 -108l-156 -540q-21 -74 -21 -96q1 -34 35 -46q18 -6 76 -10l-8 -24h-368zM270 1196h146l72 -228 h-22z" />
<glyph unicode="&#xcd;" horiz-adv-x="450" d="M-42 0l9 24q53 2 73 10q30 12 43 30q22 32 45 112l156 540q20 68 20 101q0 35 -35 47q-19 6 -69 6l8 25h346l-7 -25q-2 0 -4 1q-61 0 -93 -34q-6 -5 -11 -13q-15 -24 -39 -108l-156 -540q-21 -74 -21 -96q1 -34 35 -46q18 -6 76 -10l-8 -24h-368zM346 960l136 227h148 l-262 -227h-22z" />
<glyph unicode="&#xce;" horiz-adv-x="450" d="M-42 0l9 24q53 2 73 10q30 12 43 30q22 32 45 112l156 540q20 68 20 101q0 35 -35 47q-19 6 -69 6l8 25h346l-7 -25q-2 0 -4 1q-61 0 -93 -34q-6 -5 -11 -13q-15 -24 -39 -108l-156 -540q-21 -74 -21 -96q1 -34 35 -46q18 -6 76 -10l-8 -24h-368zM206 966l192 218h122 l57 -218h-20l-137 140l-195 -140h-19z" />
<glyph unicode="&#xcf;" horiz-adv-x="450" d="M-42 0l9 24q53 2 73 10q30 12 43 30q22 32 45 112l156 540q20 68 20 101q0 35 -35 47q-19 6 -69 6l8 25h346l-7 -25q-2 0 -4 1q-61 0 -93 -34q-6 -5 -11 -13q-15 -24 -39 -108l-156 -540q-21 -74 -21 -96q1 -34 35 -46q18 -6 76 -10l-8 -24h-368zM218 1015q0 18 9 35 t22 30t30 20.5t35 7.5q23 0 38.5 -14.5t15.5 -36.5q0 -18 -9 -35t-23 -30t-30 -21q-18 -7 -34 -7q-24 0 -39 14t-15 37zM450 1015q0 17 9 33.5t22.5 30t31 21.5t34.5 8q11 0 21 -4t17 -10.5t11 -16.5t4 -20q0 -19 -9 -36t-22.5 -29.5t-30.5 -20.5q-18 -7 -34 -7 q-11 0 -20.5 3.5t-17 10.5t-12 16t-4.5 21z" />
<glyph unicode="&#xd0;" horiz-adv-x="976" d="M-115 0l7 24h34q56 0 92 37q20 22 44 97l90 290h-129l15 48h128l75 241q8 28 12.5 48.5t4.5 35.5q0 26 -20 38t-50 12h-34l7 24h364q104 0 175.5 -11.5t118.5 -35.5t74 -61.5t43 -89.5q7 -22 10.5 -46.5t3.5 -49.5q0 -64 -18 -129t-50 -126t-77 -115.5t-100 -98.5 q-163 -132 -421 -132h-399zM161 66q77 -18 135 -18q75 0 148.5 27.5t137.5 79t114 125.5t78 167q26 87 26 154q0 58 -19 103.5t-53 77t-82.5 48t-107.5 16.5q-30 0 -65.5 -5t-76.5 -14l-102 -331h260l-15 -48h-260z" />
<glyph unicode="&#xd1;" horiz-adv-x="901" d="M-38 0l10 24q53 2 70 10q28 12 40 30q20 28 44 113l177 623q-45 68 -147 70l8 25h224l276 -701l150 524q18 64 18 100q0 52 -81 52h-17l8 25h288l-8 -25q-2 0 -5 1q-41 1 -62 -9q-32 -14 -46 -36q-20 -30 -43 -108l-210 -738h-24l-298 754l-159 -557q-18 -62 -18 -97 q0 -48 93 -56l-6 -24h-282zM392 984q12 44 31.5 76t43 53t49.5 31.5t52 10.5q14 0 25 -1.5t24 -7.5t29 -17q14 -11 36 -29q42 -36 71 -37q10 0 20.5 3.5t21.5 13.5t23 28t26 47h20q-13 -42 -32.5 -74.5t-43.5 -54.5t-50 -33.5t-52 -11.5q-18 0 -33 5t-31 14.5t-34.5 23.5 t-42.5 32q-8 6 -13.5 9.5t-10 6t-9 3t-11.5 0.5q-12 0 -21 -2t-18.5 -10.5t-21 -27t-28.5 -51.5h-20z" />
<glyph unicode="&#xd2;" horiz-adv-x="976" d="M80 292q0 120 60 246q56 119 145 207q174 171 381 171q186 0 266 -154q38 -76 38 -156q0 -153 -86 -308.5t-216 -235.5q-134 -82 -278 -82q-202 0 -276 166q-34 76 -34 146zM217 260q0 -100 47 -165q53 -73 149 -73q125 0 239 131q80 92 132.5 231.5t52.5 261.5 q0 96 -48 158q-51 69 -145 69q-138 1 -254 -139q-62 -74 -112 -195q-61 -147 -61 -279zM514 1196h146l72 -228h-22z" />
<glyph unicode="&#xd3;" horiz-adv-x="976" d="M80 292q0 120 60 246q56 119 145 207q174 171 381 171q186 0 266 -154q38 -76 38 -156q0 -153 -86 -308.5t-216 -235.5q-134 -82 -278 -82q-202 0 -276 166q-34 76 -34 146zM217 260q0 -100 47 -165q53 -73 149 -73q125 0 239 131q80 92 132.5 231.5t52.5 261.5 q0 96 -48 158q-51 69 -145 69q-138 1 -254 -139q-62 -74 -112 -195q-61 -147 -61 -279zM630 960l136 227h148l-262 -227h-22z" />
<glyph unicode="&#xd4;" horiz-adv-x="976" d="M80 292q0 120 60 246q56 119 145 207q174 171 381 171q186 0 266 -154q38 -76 38 -156q0 -153 -86 -308.5t-216 -235.5q-134 -82 -278 -82q-202 0 -276 166q-34 76 -34 146zM217 260q0 -100 47 -165q53 -73 149 -73q125 0 239 131q80 92 132.5 231.5t52.5 261.5 q0 96 -48 158q-51 69 -145 69q-138 1 -254 -139q-62 -74 -112 -195q-61 -147 -61 -279zM482 966l192 218h122l57 -218h-20l-137 140l-195 -140h-19z" />
<glyph unicode="&#xd5;" horiz-adv-x="976" d="M80 292q0 120 60 246q56 119 145 207q174 171 381 171q186 0 266 -154q38 -76 38 -156q0 -153 -86 -308.5t-216 -235.5q-134 -82 -278 -82q-202 0 -276 166q-34 76 -34 146zM217 260q0 -100 47 -165q53 -73 149 -73q125 0 239 131q80 92 132.5 231.5t52.5 261.5 q0 96 -48 158q-51 69 -145 69q-138 1 -254 -139q-62 -74 -112 -195q-61 -147 -61 -279zM492 984q12 44 31.5 76t43 53t49.5 31.5t52 10.5q14 0 25 -1.5t24 -7.5t29 -17q14 -11 36 -29q42 -36 71 -37q10 0 20.5 3.5t21.5 13.5t23 28t26 47h20q-13 -42 -32.5 -74.5 t-43.5 -54.5t-50 -33.5t-52 -11.5q-18 0 -33 5t-31 14.5t-34.5 23.5t-42.5 32q-8 6 -13.5 9.5t-10 6t-9 3t-11.5 0.5q-12 0 -21 -2t-18.5 -10.5t-21 -27t-28.5 -51.5h-20z" />
<glyph unicode="&#xd6;" horiz-adv-x="976" d="M80 292q0 120 60 246q56 119 145 207q174 171 381 171q186 0 266 -154q38 -76 38 -156q0 -153 -86 -308.5t-216 -235.5q-134 -82 -278 -82q-202 0 -276 166q-34 76 -34 146zM217 260q0 -100 47 -165q53 -73 149 -73q125 0 239 131q80 92 132.5 231.5t52.5 261.5 q0 96 -48 158q-51 69 -145 69q-138 1 -254 -139q-62 -74 -112 -195q-61 -147 -61 -279zM542 1030q0 18 9 35t22 30t30 20.5t35 7.5q23 0 38.5 -14.5t15.5 -36.5q0 -18 -9 -35t-23 -30t-30 -21q-18 -7 -34 -7q-24 0 -39 14t-15 37zM774 1030q0 17 9 33.5t22.5 30t31 21.5 t34.5 8q11 0 21 -4t17 -10.5t11 -16.5t4 -20q0 -19 -9 -36t-22.5 -29.5t-30.5 -20.5q-18 -7 -34 -7q-11 0 -20.5 3.5t-17 10.5t-12 16t-4.5 21z" />
<glyph unicode="&#xd7;" horiz-adv-x="762" d="M37 217l305 233l-160 232l50 38l160 -232l304 232l26 -37l-305 -233l162 -233l-50 -39l-161 234l-304 -233z" />
<glyph unicode="&#xd8;" horiz-adv-x="976" d="M-44 0l120 108q-52 78 -52 184q0 68 17.5 135.5t51 131t81.5 120.5t107 104q170 133 353 133q149 0 237 -99l121 107l28 -29l-122 -110q54 -89 55 -181q0 -77 -25 -152.5t-68.5 -145.5t-102.5 -129t-126 -103t-140 -69t-145 -25q-34 0 -67.5 6t-65.5 17.5t-60.5 29 t-50.5 41.5l-116 -105zM164 272q1 -28 2.5 -48t2.5 -33l626 558q-41 120 -179 120q-74 0 -137 -30.5t-115.5 -85.5t-93 -130t-67.5 -163q-37 -120 -39 -188zM181 143q11 -32 28 -53.5t38 -35.5t48 -20.5t57 -6.5q42 0 83 8.5t81 32t81 64t83 103.5q18 27 34 60.5t30 70.5 t25.5 76.5t20 77.5t12.5 73.5t4 65.5v20.5v22.5z" />
<glyph unicode="&#xd9;" horiz-adv-x="976" d="M144 230q0 40 7 84q5 28 26 100l89 304q18 64 18 97q0 49 -114 55l7 25h378l-7 -25q-48 -1 -70 -6q-36 -10 -56 -38q-18 -24 -36 -90l-92 -318q-24 -82 -28 -110q-8 -44 -8 -79q0 -88 66 -141q62 -49 152 -49q128 0 205 94q63 76 121 275l78 273q30 101 30 133 q0 50 -102 56l8 25h284l-7 -25q-82 0 -111 -44q-16 -24 -37 -96l-97 -332q-42 -146 -71 -204q-52 -106 -138 -162q-77 -52 -195 -52t-204 65q-96 71 -96 185zM542 1196h146l72 -228h-22z" />
<glyph unicode="&#xda;" horiz-adv-x="976" d="M144 230q0 40 7 84q5 28 26 100l89 304q18 64 18 97q0 49 -114 55l7 25h378l-7 -25q-48 -1 -70 -6q-36 -10 -56 -38q-18 -24 -36 -90l-92 -318q-24 -82 -28 -110q-8 -44 -8 -79q0 -88 66 -141q62 -49 152 -49q128 0 205 94q63 76 121 275l78 273q30 101 30 133 q0 50 -102 56l8 25h284l-7 -25q-82 0 -111 -44q-16 -24 -37 -96l-97 -332q-42 -146 -71 -204q-52 -106 -138 -162q-77 -52 -195 -52t-204 65q-96 71 -96 185zM626 960l136 227h148l-262 -227h-22z" />
<glyph unicode="&#xdb;" horiz-adv-x="976" d="M144 230q0 40 7 84q5 28 26 100l89 304q18 64 18 97q0 49 -114 55l7 25h378l-7 -25q-48 -1 -70 -6q-36 -10 -56 -38q-18 -24 -36 -90l-92 -318q-24 -82 -28 -110q-8 -44 -8 -79q0 -88 66 -141q62 -49 152 -49q128 0 205 94q63 76 121 275l78 273q30 101 30 133 q0 50 -102 56l8 25h284l-7 -25q-82 0 -111 -44q-16 -24 -37 -96l-97 -332q-42 -146 -71 -204q-52 -106 -138 -162q-77 -52 -195 -52t-204 65q-96 71 -96 185zM510 966l192 218h122l57 -218h-20l-137 140l-195 -140h-19z" />
<glyph unicode="&#xdc;" horiz-adv-x="976" d="M144 230q0 40 7 84q5 28 26 100l89 304q18 64 18 97q0 49 -114 55l7 25h378l-7 -25q-48 -1 -70 -6q-36 -10 -56 -38q-18 -24 -36 -90l-92 -318q-24 -82 -28 -110q-8 -44 -8 -79q0 -88 66 -141q62 -49 152 -49q128 0 205 94q63 76 121 275l78 273q30 101 30 133 q0 50 -102 56l8 25h284l-7 -25q-82 0 -111 -44q-16 -24 -37 -96l-97 -332q-42 -146 -71 -204q-52 -106 -138 -162q-77 -52 -195 -52t-204 65q-96 71 -96 185zM494 1030q0 18 9 35t22 30t30 20.5t35 7.5q23 0 38.5 -14.5t15.5 -36.5q0 -18 -9 -35t-23 -30t-30 -21 q-18 -7 -34 -7q-24 0 -39 14t-15 37zM726 1030q0 17 9 33.5t22.5 30t31 21.5t34.5 8q11 0 21 -4t17 -10.5t11 -16.5t4 -20q0 -19 -9 -36t-22.5 -29.5t-30.5 -20.5q-18 -7 -34 -7q-11 0 -20.5 3.5t-17 10.5t-12 16t-4.5 21z" />
<glyph unicode="&#xdd;" horiz-adv-x="752" d="M122 0l8 24q55 2 74 10q30 12 44 32q22 30 46 108l79 262l-96 308q-22 70 -37 90q-24 30 -85 36l7 25h330l-8 -25q-61 -4 -70 -8q-33 -11 -33 -50q0 -28 19 -92l72 -244l171 238q66 92 66 119q0 31 -95 37l6 25h282l-6 -25q-42 -6 -56 -10q-22 -10 -46 -32 q-32 -28 -90 -108l-220 -303l-66 -221q-24 -82 -24 -115q0 -36 34 -48q24 -9 77 -9l-7 -24h-376zM522 960l136 227h148l-262 -227h-22z" />
<glyph unicode="&#xde;" horiz-adv-x="752" d="M-114 0l8 24h24q60 0 100 37q20 21 42 97l178 573q11 35 15.5 57t5.5 32v4q-1 8 -7 16t-16 15t-24 11.5t-32 4.5h-26l8 24h381l-7 -24h-26q-10 0 -23.5 -1.5t-28 -6.5t-29 -15t-26.5 -26q-17 -24 -37 -87l-14 -43h50q74 0 126.5 -6.5t88 -22t56.5 -40.5t31 -62 q6 -23 6 -49q0 -32 -9 -62t-24.5 -57.5t-37 -52t-46 -45.5t-51 -37t-53.5 -27q-12 -4 -23.5 -8t-25.5 -7t-30 -6t-36 -6q-26 -3 -128 -3h-46l-12 -41q-8 -28 -13 -49t-4 -36q0 -28 18.5 -39.5t57.5 -11.5h27l-8 -24h-380zM215 248h29q66 0 116.5 15t87.5 41.5t61.5 63 t38.5 79.5q6 17 8 33t2 30q0 38 -12 63t-36 40t-59.5 21t-82.5 6h-32z" />
<glyph unicode="&#xdf;" d="M-120 0l7 24q28 0 46.5 5t32 18.5t24 38t22.5 63.5l151 489q25 81 58.5 138.5t75 93.5t90.5 52.5t105 16.5q42 0 74.5 -10.5t55.5 -29.5t35 -46t12 -61q0 -40 -12.5 -77t-36.5 -70t-60 -59t-84 -44q58 -18 87.5 -57t29.5 -99q0 -44 -12.5 -90t-34.5 -90t-53 -83t-67 -68 t-77 -46.5t-83 -17.5h-2q-22 0 -40 5.5t-31 16.5t-20 25t-7 32t6 34t16.5 27.5t24 18t29.5 6.5q21 0 30.5 -10t9.5 -26q0 -10 -3.5 -19t-7.5 -18t-7.5 -15t-5.5 -9q-2 -5 -1 -9q0 -9 7.5 -15.5t21.5 -6.5q23 0 44.5 12t41.5 35t37 56t31 75q28 88 27 154q0 34 -7.5 62 t-23.5 48t-40 30.5t-57 10.5l11 38q35 0 65 9.5t54.5 31.5t44.5 56q20 33 34 81q14 47 14 81q0 42 -22 64.5t-66 22.5q-27 0 -52 -8.5t-48.5 -32t-44.5 -65t-41 -105.5l-212 -684h-196z" />
<glyph unicode="&#xe0;" d="M32 134q0 110 66 228q63 112 157 180q76 56 143 56q82 0 108 -92l24 76l104 16l-143 -508q-2 -8 -2 -15q0 -24 20 -24q27 -1 91 89l22 -16q-94 -140 -182 -140q-56 0 -57 56q1 34 15 84l13 50q-146 -190 -261 -190q-58 0 -90 48q-28 42 -28 102zM138 158q0 -98 73 -98 t157 107q112 141 112 289q0 106 -80 107q-42 1 -90 -39q-68 -58 -120 -167t-52 -199zM238 926h146l72 -228h-22z" />
<glyph unicode="&#xe1;" d="M32 134q0 110 66 228q63 112 157 180q76 56 143 56q82 0 108 -92l24 76l104 16l-143 -508q-2 -8 -2 -15q0 -24 20 -24q27 -1 91 89l22 -16q-94 -140 -182 -140q-56 0 -57 56q1 34 15 84l13 50q-146 -190 -261 -190q-58 0 -90 48q-28 42 -28 102zM138 158q0 -98 73 -98 t157 107q112 141 112 289q0 106 -80 107q-42 1 -90 -39q-68 -58 -120 -167t-52 -199zM344 690l136 227h148l-262 -227h-22z" />
<glyph unicode="&#xe2;" d="M32 134q0 110 66 228q63 112 157 180q76 56 143 56q82 0 108 -92l24 76l104 16l-143 -508q-2 -8 -2 -15q0 -24 20 -24q27 -1 91 89l22 -16q-94 -140 -182 -140q-56 0 -57 56q1 34 15 84l13 50q-146 -190 -261 -190q-58 0 -90 48q-28 42 -28 102zM138 158q0 -98 73 -98 t157 107q112 141 112 289q0 106 -80 107q-42 1 -90 -39q-68 -58 -120 -167t-52 -199zM288 696l192 218h122l57 -218h-20l-137 140l-195 -140h-19z" />
<glyph unicode="&#xe3;" d="M32 134q0 110 66 228q63 112 157 180q76 56 143 56q82 0 108 -92l24 76l104 16l-143 -508q-2 -8 -2 -15q0 -24 20 -24q27 -1 91 89l22 -16q-94 -140 -182 -140q-56 0 -57 56q1 34 15 84l13 50q-146 -190 -261 -190q-58 0 -90 48q-28 42 -28 102zM138 158q0 -98 73 -98 t157 107q112 141 112 289q0 106 -80 107q-42 1 -90 -39q-68 -58 -120 -167t-52 -199zM206 724q12 44 31.5 76t43 53t49.5 31.5t52 10.5q14 0 25 -1.5t24 -7.5t29 -17q14 -11 36 -29q42 -36 71 -37q10 0 20.5 3.5t21.5 13.5t23 28t26 47h20q-13 -42 -32.5 -74.5t-43.5 -54.5 t-50 -33.5t-52 -11.5q-18 0 -33 5t-31 14.5t-34.5 23.5t-42.5 32q-8 6 -13.5 9.5t-10 6t-9 3t-11.5 0.5q-12 0 -21 -2t-18.5 -10.5t-21 -27t-28.5 -51.5h-20z" />
<glyph unicode="&#xe4;" d="M32 134q0 110 66 228q63 112 157 180q76 56 143 56q82 0 108 -92l24 76l104 16l-143 -508q-2 -8 -2 -15q0 -24 20 -24q27 -1 91 89l22 -16q-94 -140 -182 -140q-56 0 -57 56q1 34 15 84l13 50q-146 -190 -261 -190q-58 0 -90 48q-28 42 -28 102zM138 158q0 -98 73 -98 t157 107q112 141 112 289q0 106 -80 107q-42 1 -90 -39q-68 -58 -120 -167t-52 -199zM249 790q0 18 9 35t22 30t30 20.5t35 7.5q23 0 38.5 -14.5t15.5 -36.5q0 -18 -9 -35t-23 -30t-30 -21q-18 -7 -34 -7q-24 0 -39 14t-15 37zM481 790q0 17 9 33.5t22.5 30t31 21.5t34.5 8 q11 0 21 -4t17 -10.5t11 -16.5t4 -20q0 -19 -9 -36t-22.5 -29.5t-30.5 -20.5q-18 -7 -34 -7q-11 0 -20.5 3.5t-17 10.5t-12 16t-4.5 21z" />
<glyph unicode="&#xe5;" d="M32 134q0 110 66 228q63 112 157 180q76 56 143 56q82 0 108 -92l24 76l104 16l-143 -508q-2 -8 -2 -15q0 -24 20 -24q27 -1 91 89l22 -16q-94 -140 -182 -140q-56 0 -57 56q1 34 15 84l13 50q-146 -190 -261 -190q-58 0 -90 48q-28 42 -28 102zM138 158q0 -98 73 -98 t157 107q112 141 112 289q0 106 -80 107q-42 1 -90 -39q-68 -58 -120 -167t-52 -199zM350 776q0 30 15 59.5t39 52.5t55 38t63 15q20 0 37.5 -6t30 -18t19.5 -28t7 -36q0 -32 -15 -62t-40 -53t-56 -36.5t-61 -13.5q-20 0 -37.5 6.5t-30 18t-19.5 27.5t-7 36zM399 791 q0 -26 16 -41.5t43 -15.5q20 0 40 9.5t35 24.5t25 33t10 38q0 26 -17 41t-43 15q-20 0 -40 -9t-35 -23t-24.5 -33t-9.5 -39z" />
<glyph unicode="&#xe6;" horiz-adv-x="902" d="M-12 84q0 20 5 40t14 39t21 36t25 31q14 13 37.5 28t53.5 30.5t63.5 30.5t67.5 29t66.5 26t58.5 20l19 61q12 39 12 65q0 33 -18.5 49t-50.5 16q-22 0 -41 -6t-34 -15.5t-25 -22.5t-14 -25q-12 -40 -24 -62t-22 -32t-20 -11t-20 -1q-13 0 -21.5 4t-13.5 10t-7 14t-2 16 q0 24 20 53.5t56 55t85.5 43t109.5 17.5q38 0 66 -5.5t46.5 -16t28.5 -25.5t13 -34q25 22 49 38t48 25t50 13.5t55 4.5q36 0 64.5 -9.5t48.5 -27.5t31 -46q11 -26 11 -62q0 -22 -4 -48.5t-13 -55.5h-377l-16 -49q-12 -38 -17 -69.5t-5 -56.5q0 -30 8.5 -52.5t24 -36.5 t37.5 -22q20 -7 46 -7q32 0 64 9.5t64 30.5q39 24 104 105l16 -15q-23 -43 -55.5 -84t-73.5 -73.5t-88 -52t-97 -19.5q-30 0 -52.5 3t-41 13t-35.5 31t-35 58l-44 -28q-38 -24 -66 -38.5t-52 -23.5t-47 -12t-49 -3q-24 0 -44 7t-34 20t-22 32t-8 43zM111 129q0 -18 6 -32.5 t16.5 -24.5t24.5 -15t30 -5q14 0 28.5 3t32.5 11t41.5 21t55.5 34q-1 6 -1.5 13.5t-0.5 15.5q0 15 2 33t5 37t8 37.5t9 34.5l18 59q-28 -8 -59.5 -19.5t-62 -26t-58.5 -32.5t-49 -40t-33.5 -48t-12.5 -56zM519 417h250q13 43 13 75q0 42 -24 63t-62 21q-26 0 -52 -10 t-50 -30.5t-43.5 -50.5t-31.5 -68z" />
<glyph unicode="&#xe7;" horiz-adv-x="600" d="M37 179q-1 106 59 204q56 93 149 153q95 62 187 62q144 0 144 -104q0 -40 -26 -70q-19 -22 -45 -22q-47 0 -47 46q0 24 25 48q22 22 22 36q-1 36 -67 36q-143 0 -236 -176q-54 -100 -54 -202q0 -146 142 -146q103 0 213 117l19 -17q-132 -160 -286 -160 q-92 0 -145.5 51.5t-53.5 143.5zM84 -253l9 29q7 -2 15 -2q8 -1 16 -1q18 0 36.5 7.5t33.5 20t24.5 28t9.5 29.5q0 16 -12 26t-30 10l-16 -1l107 118h40l-49 -53q30 -7 44.5 -24.5t14.5 -42.5q0 -28 -15 -54.5t-40.5 -47.5t-57.5 -33q-32 -13 -68 -13q-21 0 -36.5 1.5 t-25.5 2.5z" />
<glyph unicode="&#xe8;" horiz-adv-x="600" d="M42 179q0 101 63 205q61 100 151 156q92 58 188 58q138 0 138 -96q0 -56 -44 -106q-57 -64 -169 -105q-75 -27 -208 -42q-5 -33 -5 -55q0 -60 42 -100.5t101 -40.5q85 -1 222 105l13 -18q-156 -156 -298 -156q-86 0 -140 54.5t-54 140.5zM166 281q98 13 158 39 q162 72 163 182q0 62 -67 62q-92 0 -168 -100q-60 -80 -86 -183zM238 926h146l72 -228h-22z" />
<glyph unicode="&#xe9;" horiz-adv-x="600" d="M42 179q0 101 63 205q61 100 151 156q92 58 188 58q138 0 138 -96q0 -56 -44 -106q-57 -64 -169 -105q-75 -27 -208 -42q-5 -33 -5 -55q0 -60 42 -100.5t101 -40.5q85 -1 222 105l13 -18q-156 -156 -298 -156q-86 0 -140 54.5t-54 140.5zM166 281q98 13 158 39 q162 72 163 182q0 62 -67 62q-92 0 -168 -100q-60 -80 -86 -183zM326 690l136 227h148l-262 -227h-22z" />
<glyph unicode="&#xea;" horiz-adv-x="600" d="M42 179q0 101 63 205q61 100 151 156q92 58 188 58q138 0 138 -96q0 -56 -44 -106q-57 -64 -169 -105q-75 -27 -208 -42q-5 -33 -5 -55q0 -60 42 -100.5t101 -40.5q85 -1 222 105l13 -18q-156 -156 -298 -156q-86 0 -140 54.5t-54 140.5zM166 281q98 13 158 39 q162 72 163 182q0 62 -67 62q-92 0 -168 -100q-60 -80 -86 -183zM238 696l192 218h122l57 -218h-20l-137 140l-195 -140h-19z" />
<glyph unicode="&#xeb;" horiz-adv-x="600" d="M42 179q0 101 63 205q61 100 151 156q92 58 188 58q138 0 138 -96q0 -56 -44 -106q-57 -64 -169 -105q-75 -27 -208 -42q-5 -33 -5 -55q0 -60 42 -100.5t101 -40.5q85 -1 222 105l13 -18q-156 -156 -298 -156q-86 0 -140 54.5t-54 140.5zM166 281q98 13 158 39 q162 72 163 182q0 62 -67 62q-92 0 -168 -100q-60 -80 -86 -183zM246 790q0 18 9 35t22 30t30 20.5t35 7.5q23 0 38.5 -14.5t15.5 -36.5q0 -18 -9 -35t-23 -30t-30 -21q-18 -7 -34 -7q-24 0 -39 14t-15 37zM478 790q0 17 9 33.5t22.5 30t31 21.5t34.5 8q11 0 21 -4t17 -10.5 t11 -16.5t4 -20q0 -19 -9 -36t-22.5 -29.5t-30.5 -20.5q-18 -7 -34 -7q-11 0 -20.5 3.5t-17 10.5t-12 16t-4.5 21z" />
<glyph unicode="&#xec;" horiz-adv-x="375" d="M58 41q0 24 16 81l86 296q22 72 22 91q0 33 -39 33q-14 0 -60 -8v26l228 38l-131 -464q-7 -24 -10 -37t-3 -19q0 -24 21 -23q9 0 21 8.5t25.5 21.5t27.5 30t26 35l23 -16q-45 -68 -105 -115q-46 -35 -86 -35q-62 0 -62 57zM94 926h146l72 -228h-22z" />
<glyph unicode="&#xed;" horiz-adv-x="375" d="M58 41q0 24 16 81l86 296q22 72 22 91q0 33 -39 33q-14 0 -60 -8v26l228 38l-131 -464q-7 -24 -10 -37t-3 -19q0 -24 21 -23q9 0 21 8.5t25.5 21.5t27.5 30t26 35l23 -16q-45 -68 -105 -115q-46 -35 -86 -35q-62 0 -62 57zM202 690l136 227h148l-262 -227h-22z" />
<glyph unicode="&#xee;" horiz-adv-x="375" d="M58 41q0 24 16 81l86 296q22 72 22 91q0 33 -39 33q-14 0 -60 -8v26l228 38l-131 -464q-7 -24 -10 -37t-3 -19q0 -24 21 -23q9 0 21 8.5t25.5 21.5t27.5 30t26 35l23 -16q-45 -68 -105 -115q-46 -35 -86 -35q-62 0 -62 57zM46 696l192 218h122l57 -218h-20l-137 140 l-195 -140h-19z" />
<glyph unicode="&#xef;" horiz-adv-x="375" d="M58 41q0 24 16 81l86 296q22 72 22 91q0 33 -39 33q-14 0 -60 -8v26l228 38l-131 -464q-7 -24 -10 -37t-3 -19q0 -24 21 -23q9 0 21 8.5t25.5 21.5t27.5 30t26 35l23 -16q-45 -68 -105 -115q-46 -35 -86 -35q-62 0 -62 57zM60 790q0 18 9 35t22 30t30 20.5t35 7.5 q23 0 38.5 -14.5t15.5 -36.5q0 -18 -9 -35t-23 -30t-30 -21q-18 -7 -34 -7q-24 0 -39 14t-15 37zM292 790q0 17 9 33.5t22.5 30t31 21.5t34.5 8q11 0 21 -4t17 -10.5t11 -16.5t4 -20q0 -19 -9 -36t-22.5 -29.5t-30.5 -20.5q-18 -7 -34 -7q-11 0 -20.5 3.5t-17 10.5t-12 16 t-4.5 21z" />
<glyph unicode="&#xf0;" d="M-24 186q0 48 15 98t42 98t64 91t81 75t93 50.5t99 18.5q16 0 28 -1t23.5 -5t23 -11.5t25.5 -21.5q-10 54 -25.5 102.5t-38.5 91.5l-190 -89l-10 36l182 87q-17 24 -29 39q-13 15 -19 23l-19 20q-4 4 -11 10q-8 5 -16 12l28 29q34 -21 68 -48t63 -55l193 92l11 -36 l-177 -86q64 -76 94 -160.5t30 -178.5q0 -58 -14 -115.5t-40.5 -111.5t-64 -101t-84.5 -82t-102.5 -55t-117.5 -20q-44 0 -81.5 14t-65.5 41t-43 64.5t-15 84.5zM105 201q0 -43 9.5 -75t26.5 -54t39 -33t47 -11q30 0 59.5 12.5t57 39t52 68.5t42.5 101q30 97 30 171 q0 78 -30 117.5t-86 39.5q-31 0 -62 -12.5t-60 -40.5t-54.5 -73t-45.5 -109q-12 -36 -18.5 -69.5t-6.5 -71.5z" />
<glyph unicode="&#xf1;" d="M26 0l120 413q21 73 21 90q-1 36 -41 36q-11 -1 -27 -3l-25 -4l-4 24l228 42l-88 -301q91 135 133 183q102 118 183 118q76 0 76 -79q0 -40 -19 -106l-81 -277q-14 -48 -14 -60q0 -22 17 -21q8 1 19 9q34 27 76 84l21 -12q-107 -152 -185 -152q-54 0 -53 55q1 31 23 109 l76 265q14 49 14 77q0 30 -30 30q-18 0 -44 -16q-94 -58 -213 -272q-31 -57 -51 -123l-34 -109h-98zM182 724q12 44 31.5 76t43 53t49.5 31.5t52 10.5q14 0 25 -1.5t24 -7.5t29 -17q14 -11 36 -29q42 -36 71 -37q10 0 20.5 3.5t21.5 13.5t23 28t26 47h20 q-13 -42 -32.5 -74.5t-43.5 -54.5t-50 -33.5t-52 -11.5q-18 0 -33 5t-31 14.5t-34.5 23.5t-42.5 32q-8 6 -13.5 9.5t-10 6t-9 3t-11.5 0.5q-12 0 -21 -2t-18.5 -10.5t-21 -27t-28.5 -51.5h-20z" />
<glyph unicode="&#xf2;" d="M40 192q0 102 58 200q56 94 146 148q94 58 181 58q89 0 145 -60q54 -58 55 -148q0 -104 -54.5 -199t-144.5 -150q-94 -57 -182 -57q-91 0 -147.5 58t-56.5 150zM148 148q0 -131 112 -131q108 -1 188 161q68 138 68 258q0 126 -108 127q-108 -1 -190 -159 q-70 -136 -70 -256zM238 926h146l72 -228h-22z" />
<glyph unicode="&#xf3;" d="M40 192q0 102 58 200q56 94 146 148q94 58 181 58q89 0 145 -60q54 -58 55 -148q0 -104 -54.5 -199t-144.5 -150q-94 -57 -182 -57q-91 0 -147.5 58t-56.5 150zM148 148q0 -131 112 -131q108 -1 188 161q68 138 68 258q0 126 -108 127q-108 -1 -190 -159 q-70 -136 -70 -256zM397 690l136 227h148l-262 -227h-22z" />
<glyph unicode="&#xf4;" d="M40 192q0 102 58 200q56 94 146 148q94 58 181 58q89 0 145 -60q54 -58 55 -148q0 -104 -54.5 -199t-144.5 -150q-94 -57 -182 -57q-91 0 -147.5 58t-56.5 150zM148 148q0 -131 112 -131q108 -1 188 161q68 138 68 258q0 126 -108 127q-108 -1 -190 -159 q-70 -136 -70 -256zM266 696l192 218h122l57 -218h-20l-137 140l-195 -140h-19z" />
<glyph unicode="&#xf5;" d="M40 192q0 102 58 200q56 94 146 148q94 58 181 58q89 0 145 -60q54 -58 55 -148q0 -104 -54.5 -199t-144.5 -150q-94 -57 -182 -57q-91 0 -147.5 58t-56.5 150zM148 148q0 -131 112 -131q108 -1 188 161q68 138 68 258q0 126 -108 127q-108 -1 -190 -159 q-70 -136 -70 -256zM245 724q12 44 31.5 76t43 53t49.5 31.5t52 10.5q14 0 25 -1.5t24 -7.5t29 -17q14 -11 36 -29q42 -36 71 -37q10 0 20.5 3.5t21.5 13.5t23 28t26 47h20q-13 -42 -32.5 -74.5t-43.5 -54.5t-50 -33.5t-52 -11.5q-18 0 -33 5t-31 14.5t-34.5 23.5t-42.5 32 q-8 6 -13.5 9.5t-10 6t-9 3t-11.5 0.5q-12 0 -21 -2t-18.5 -10.5t-21 -27t-28.5 -51.5h-20z" />
<glyph unicode="&#xf6;" d="M40 192q0 102 58 200q56 94 146 148q94 58 181 58q89 0 145 -60q54 -58 55 -148q0 -104 -54.5 -199t-144.5 -150q-94 -57 -182 -57q-91 0 -147.5 58t-56.5 150zM148 148q0 -131 112 -131q108 -1 188 161q68 138 68 258q0 126 -108 127q-108 -1 -190 -159 q-70 -136 -70 -256zM272 790q0 18 9 35t22 30t30 20.5t35 7.5q23 0 38.5 -14.5t15.5 -36.5q0 -18 -9 -35t-23 -30t-30 -21q-18 -7 -34 -7q-24 0 -39 14t-15 37zM504 790q0 17 9 33.5t22.5 30t31 21.5t34.5 8q11 0 21 -4t17 -10.5t11 -16.5t4 -20q0 -19 -9 -36t-22.5 -29.5 t-30.5 -20.5q-18 -7 -34 -7q-11 0 -20.5 3.5t-17 10.5t-12 16t-4.5 21z" />
<glyph unicode="&#xf7;" horiz-adv-x="742" d="M7 422l17 55h712l-17 -55h-712zM247 225q0 14 6.5 27.5t18 24.5t25.5 17q15 6 29 6q18 0 30 -11t12 -29q0 -14 -6.5 -28t-18 -24.5t-25.5 -17t-28 -6.5q-18 0 -30.5 10.5t-12.5 30.5zM374 634q0 16 7 30t18.5 24t25.5 16t27 6q18 0 30 -12q12 -10 12 -28q0 -14 -6 -27 t-17 -24t-25 -17q-14 -7 -30 -7q-18 0 -30 10t-12 29z" />
<glyph unicode="&#xf8;" d="M-72 -16l125 105q-21 40 -21 100q0 46 14 95.5t40 97.5t62.5 91.5t82 76.5t99.5 52.5t113 19.5q28 0 50.5 -4t41.5 -12.5t37 -22.5t36 -34l118 97l22 -28l-120 -101q22 -49 22 -105q0 -26 -7 -59t-21 -68t-34 -71t-46 -70t-59 -63t-71 -51t-82 -35t-94 -13q-27 0 -49.5 4 t-42.5 12t-38 23t-36 36l-120 -101zM158 178l360 297q-8 29 -18 49t-23 32t-30 17.5t-39 5.5q-32 0 -63.5 -12.5t-60 -39.5t-53.5 -71t-44 -105q-13 -41 -20 -84t-9 -89zM166 135q8 -30 17 -50.5t22 -33.5t31 -18q16 -5 40 -5q32 0 63.5 12.5t60 40.5t52.5 73q26 46 46 111 q24 78 25 167z" />
<glyph unicode="&#xf9;" d="M40 456q48 76 104 113q42 29 78 29q56 0 56 -56q0 -38 -26 -128l-62 -212q-26 -88 -26 -111q0 -27 30 -27q58 0 150 118q58 74 96 140q42 70 82 210l14 50h100l-114 -394q-26 -88 -26 -111t16 -23q22 0 92 92l20 -16q-52 -83 -106 -121q-36 -25 -70 -25q-56 0 -56 52 q0 20 10 60q12 54 60 212q-198 -324 -328 -324q-74 0 -74 74q0 48 30 152l57 204q21 76 21 92q0 18 -18 18q-26 0 -90 -82zM238 926h146l72 -228h-22z" />
<glyph unicode="&#xfa;" d="M40 456q48 76 104 113q42 29 78 29q56 0 56 -56q0 -38 -26 -128l-62 -212q-26 -88 -26 -111q0 -27 30 -27q58 0 150 118q58 74 96 140q42 70 82 210l14 50h100l-114 -394q-26 -88 -26 -111t16 -23q22 0 92 92l20 -16q-52 -83 -106 -121q-36 -25 -70 -25q-56 0 -56 52 q0 20 10 60q12 54 60 212q-198 -324 -328 -324q-74 0 -74 74q0 48 30 152l57 204q21 76 21 92q0 18 -18 18q-26 0 -90 -82zM356 690l136 227h148l-262 -227h-22z" />
<glyph unicode="&#xfb;" d="M40 456q48 76 104 113q42 29 78 29q56 0 56 -56q0 -38 -26 -128l-62 -212q-26 -88 -26 -111q0 -27 30 -27q58 0 150 118q58 74 96 140q42 70 82 210l14 50h100l-114 -394q-26 -88 -26 -111t16 -23q22 0 92 92l20 -16q-52 -83 -106 -121q-36 -25 -70 -25q-56 0 -56 52 q0 20 10 60q12 54 60 212q-198 -324 -328 -324q-74 0 -74 74q0 48 30 152l57 204q21 76 21 92q0 18 -18 18q-26 0 -90 -82zM250 696l192 218h122l57 -218h-20l-137 140l-195 -140h-19z" />
<glyph unicode="&#xfc;" d="M40 456q48 76 104 113q42 29 78 29q56 0 56 -56q0 -38 -26 -128l-62 -212q-26 -88 -26 -111q0 -27 30 -27q58 0 150 118q58 74 96 140q42 70 82 210l14 50h100l-114 -394q-26 -88 -26 -111t16 -23q22 0 92 92l20 -16q-52 -83 -106 -121q-36 -25 -70 -25q-56 0 -56 52 q0 20 10 60q12 54 60 212q-198 -324 -328 -324q-74 0 -74 74q0 48 30 152l57 204q21 76 21 92q0 18 -18 18q-26 0 -90 -82zM239 790q0 18 9 35t22 30t30 20.5t35 7.5q23 0 38.5 -14.5t15.5 -36.5q0 -18 -9 -35t-23 -30t-30 -21q-18 -7 -34 -7q-24 0 -39 14t-15 37zM471 790 q0 17 9 33.5t22.5 30t31 21.5t34.5 8q11 0 21 -4t17 -10.5t11 -16.5t4 -20q0 -19 -9 -36t-22.5 -29.5t-30.5 -20.5q-18 -7 -34 -7q-11 0 -20.5 3.5t-17 10.5t-12 16t-4.5 21z" />
<glyph unicode="&#xfd;" horiz-adv-x="600" d="M-108 -240q0 26 21 47t47 21q14 0 22 -6q6 -4 14 -24q8 -18 16 -19q4 1 14 7q38 24 85 71q61 63 93 105l-36 419q-7 80 -15 100q-18 49 -75 49q-14 0 -50 -4l-6 24l194 48q36 -60 48 -204l29 -324q42 50 115 150q36 50 90 137q32 52 40 74q4 11 3 22q-1 15 -29 23 q-44 14 -44 62q0 60 54 60q70 0 70 -91q0 -89 -172 -325q-102 -138 -246 -302q-152 -172 -231 -172q-51 0 -51 52zM328 690l136 227h148l-262 -227h-22z" />
<glyph unicode="&#xfe;" d="M-194 -288l8 25l16 -1q12 0 24 1t24 5t23.5 11.5t21.5 20.5q11 13 32 81l275 890q10 32 14 49.5t4 25.5q0 14 -8 23t-30 9q-16 0 -44 -10l-1 21l209 76h26l-143 -460q36 40 67.5 67t60.5 44t56 24.5t53 7.5q37 0 66.5 -13t49 -36t30 -56t10.5 -73q0 -54 -16 -110 t-43.5 -107t-65.5 -96t-82.5 -78t-94.5 -52t-100 -19q-22 0 -39.5 2t-32.5 7.5t-28.5 16t-27.5 27.5l-57 -184q-9 -28 -13 -46.5t-4 -27.5v-3q1 -8 4.5 -15t12.5 -12t25 -7.5t42 -2.5l-8 -25h-316zM151 111q0 -18 6.5 -34.5t19.5 -28.5t33 -19.5t48 -7.5q38 0 73 17.5 t65.5 49.5t55 76.5t40.5 97.5q11 37 16.5 68.5t5.5 59.5q0 30 -6 55t-18.5 43t-31 28.5t-44.5 10.5h-1q-27 0 -68 -16q-12 -6 -37 -23.5t-63 -47.5l-69 -226q-12 -36 -18.5 -60t-6.5 -35v-8z" />
<glyph unicode="&#xff;" horiz-adv-x="600" d="M-108 -240q0 26 21 47t47 21q14 0 22 -6q6 -4 14 -24q8 -18 16 -19q4 1 14 7q38 24 85 71q61 63 93 105l-36 419q-7 80 -15 100q-18 49 -75 49q-14 0 -50 -4l-6 24l194 48q36 -60 48 -204l29 -324q42 50 115 150q36 50 90 137q32 52 40 74q4 11 3 22q-1 15 -29 23 q-44 14 -44 62q0 60 54 60q70 0 70 -91q0 -89 -172 -325q-102 -138 -246 -302q-152 -172 -231 -172q-51 0 -51 52zM206 790q0 18 9 35t22 30t30 20.5t35 7.5q23 0 38.5 -14.5t15.5 -36.5q0 -18 -9 -35t-23 -30t-30 -21q-18 -7 -34 -7q-24 0 -39 14t-15 37zM438 790 q0 17 9 33.5t22.5 30t31 21.5t34.5 8q11 0 21 -4t17 -10.5t11 -16.5t4 -20q0 -19 -9 -36t-22.5 -29.5t-30.5 -20.5q-18 -7 -34 -7q-11 0 -20.5 3.5t-17 10.5t-12 16t-4.5 21z" />
<glyph unicode="&#x131;" horiz-adv-x="375" d="M58 41q0 24 16 81l86 296q22 72 22 91q0 33 -39 33q-14 0 -60 -8v26l228 38l-131 -464q-7 -24 -10 -37t-3 -19q0 -24 21 -23q9 0 21 8.5t25.5 21.5t27.5 30t26 35l23 -16q-45 -68 -105 -115q-46 -35 -86 -35q-62 0 -62 57z" />
<glyph unicode="&#x152;" horiz-adv-x="1202" d="M24 286q0 60 15 122t43 121t67 115t87 103q159 156 373 156q28 -2 58.5 -3.5t61 -2.5t60.5 -1.5t57 -0.5h376l-52 -197h-22q2 22 4 39t2 29q0 20 -3.5 35t-17 25t-39.5 15t-72 5h-170l-108 -353h120q38 0 66.5 7.5t50 23.5t36.5 40t25 58h26l-96 -311h-26q12 39 12 63 q0 18 -5.5 31.5t-18 22t-33.5 12.5t-52 4h-121l-91 -295q-8 -25 -12 -42q-3 -17 -3 -25v-2q0 -6 1 -12t7 -10t19 -6t37 -2h68q40 0 67 1.5t46.5 6.5t37 14.5t39.5 25.5q32 22 63 53.5t61 72.5h27l-141 -224h-320h-13.5h-12.5h-24h-22h-21t-21 -1l-111 -6q-12 0 -28 -0.5 t-31 -1.5t-26 -1q-10 0 -12 -1q-62 0 -114.5 18.5t-91 55.5t-60.5 92.5t-22 130.5zM166 234q0 -46 11 -82.5t33 -62t55 -39.5t76 -14q44 0 80 14q35 16 61 50q11 15 23.5 46t27.5 78l143 464q22 74 23 104q0 34 -25.5 51.5t-74.5 17.5q-60 0 -117.5 -26.5t-109.5 -78.5 t-96 -131t-77 -184q-16 -52 -24.5 -99.5t-8.5 -99.5v-8z" />
<glyph unicode="&#x153;" horiz-adv-x="976" d="M21 175q0 62 17.5 119t47 106.5t69 90.5t84 70t91.5 45q48 16 92 16q72 0 114 -28t60 -76q28 28 54 48t52 33t54 18.5t59 5.5q35 0 64 -9.5t49.5 -27.5t32 -44t11.5 -62q0 -44 -18 -102h-361l-9 -25q-11 -28 -14.5 -60.5t-3.5 -66.5v-3q0 -34 9 -59t25 -41.5t38 -24.5 t48 -8q52 0 103 34t99 110l18 -11q-31 -63 -66 -108.5t-73 -75t-78.5 -43.5t-80.5 -14q-32 0 -57 8t-43 23t-29 34t-17 41q-58 -54 -117 -80t-125 -26q-43 0 -79.5 13t-63 37t-41.5 60.5t-15 82.5zM154 180q0 -34 5.5 -62t17.5 -48t30.5 -31t43.5 -11q29 0 57.5 11.5 t55 37.5t49.5 68.5t43 104.5q18 58 26 106t8 88q0 72 -25 107t-79 35q-19 0 -44.5 -9t-52.5 -34t-55 -70t-50 -117q-16 -51 -23 -94.5t-7 -81.5zM606 421h232q12 39 12 75q0 18 -5.5 33t-16 26t-24.5 17.5t-33 6.5q-22 0 -45.5 -10.5t-46.5 -30.5t-42 -49.5t-31 -67.5z" />
<glyph unicode="&#x178;" horiz-adv-x="752" d="M122 0l8 24q55 2 74 10q30 12 44 32q22 30 46 108l79 262l-96 308q-22 70 -37 90q-24 30 -85 36l7 25h330l-8 -25q-61 -4 -70 -8q-33 -11 -33 -50q0 -28 19 -92l72 -244l171 238q66 92 66 119q0 31 -95 37l6 25h282l-6 -25q-42 -6 -56 -10q-22 -10 -46 -32 q-32 -28 -90 -108l-220 -303l-66 -221q-24 -82 -24 -115q0 -36 34 -48q24 -9 77 -9l-7 -24h-376zM375 1060q0 18 9 35t22 30t30 20.5t35 7.5q23 0 38.5 -14.5t15.5 -36.5q0 -18 -9 -35t-23 -30t-30 -21q-18 -7 -34 -7q-24 0 -39 14t-15 37zM607 1060q0 17 9 33.5t22.5 30 t31 21.5t34.5 8q11 0 21 -4t17 -10.5t11 -16.5t4 -20q0 -19 -9 -36t-22.5 -29.5t-30.5 -20.5q-18 -7 -34 -7q-11 0 -20.5 3.5t-17 10.5t-12 16t-4.5 21z" />
<glyph unicode="&#x2c6;" horiz-adv-x="450" d="M6 696l192 218h122l57 -218h-20l-137 140l-195 -140h-19z" />
<glyph unicode="&#x2da;" horiz-adv-x="450" d="M92 775q0 30 15 59.5t39 52.5t55 38t63 15q20 0 37.5 -6t30 -18t19.5 -28t7 -36q0 -32 -15 -62t-40 -53t-56 -36.5t-61 -13.5q-20 0 -37.5 6.5t-30 18t-19.5 27.5t-7 36zM141 790q0 -26 16 -41.5t43 -15.5q20 0 40 9.5t35 24.5t25 33t10 38q0 26 -17 41t-43 15 q-20 0 -40 -9t-35 -23t-24.5 -33t-9.5 -39z" />
<glyph unicode="&#x25e6;" horiz-adv-x="450" d="M92 775q0 30 15 59.5t39 52.5t55 38t63 15q20 0 37.5 -6t30 -18t19.5 -28t7 -36q0 -32 -15 -62t-40 -53t-56 -36.5t-61 -13.5q-20 0 -37.5 6.5t-30 18t-19.5 27.5t-7 36zM141 790q0 -26 16 -41.5t43 -15.5q20 0 40 9.5t35 24.5t25 33t10 38q0 26 -17 41t-43 15 q-20 0 -40 -9t-35 -23t-24.5 -33t-9.5 -39z" />
<glyph unicode="&#x2dc;" horiz-adv-x="450" d="M-10 724q12 44 31.5 76t43 53t49.5 31.5t52 10.5q14 0 25 -1.5t24 -7.5t29 -17q14 -11 36 -29q42 -36 71 -37q10 0 20.5 3.5t21.5 13.5t23 28t26 47h20q-13 -42 -32.5 -74.5t-43.5 -54.5t-50 -33.5t-52 -11.5q-18 0 -33 5t-31 14.5t-34.5 23.5t-42.5 32q-8 6 -13.5 9.5 t-10 6t-9 3t-11.5 0.5q-12 0 -21 -2t-18.5 -10.5t-21 -27t-28.5 -51.5h-20z" />
<glyph unicode="&#x2000;" horiz-adv-x="682" />
<glyph unicode="&#x2001;" horiz-adv-x="1365" />
<glyph unicode="&#x2002;" horiz-adv-x="682" />
<glyph unicode="&#x2003;" horiz-adv-x="1365" />
<glyph unicode="&#x2004;" horiz-adv-x="455" />
<glyph unicode="&#x2005;" horiz-adv-x="341" />
<glyph unicode="&#x2006;" horiz-adv-x="227" />
<glyph unicode="&#x2007;" horiz-adv-x="227" />
<glyph unicode="&#x2008;" horiz-adv-x="170" />
<glyph unicode="&#x2009;" horiz-adv-x="273" />
<glyph unicode="&#x200a;" horiz-adv-x="75" />
<glyph unicode="&#x2010;" horiz-adv-x="450" d="M36 250l26 88h342l-26 -88h-342z" />
<glyph unicode="&#x2011;" horiz-adv-x="450" d="M36 250l26 88h342l-26 -88h-342z" />
<glyph unicode="&#x2012;" horiz-adv-x="450" d="M36 250l26 88h342l-26 -88h-342z" />
<glyph unicode="&#x2013;" d="M-12 299v48h699v-48h-699z" />
<glyph unicode="&#x2014;" horiz-adv-x="1202" d="M-12 299v48h1226v-48h-1226z" />
<glyph unicode="&#x2018;" horiz-adv-x="450" d="M286 704q0 72 58 132q50 52 122 80l14 -21q-104 -46 -104 -107q0 -12 4 -22q15 -14 36 -44q4 -10 4 -25q0 -28 -19 -49t-46 -21q-30 0 -49.5 23.5t-19.5 53.5z" />
<glyph unicode="&#x2019;" horiz-adv-x="450" d="M264 648q50 22 81 57q24 26 24 50q0 15 -4 23q-17 14 -37 42q-4 10 -4 26q0 28 19 49t47 21q30 0 49 -24q19 -22 19 -53q0 -71 -57 -132q-50 -52 -123 -80z" />
<glyph unicode="&#x201a;" horiz-adv-x="338" d="M17 -225l9 29q156 48 195 170q3 10 3 16q0 10 -10 10q-2 0 -8 -3t-15 -6t-19 -6t-20 -3q-54 0 -54 42q0 21 9.5 40.5t25 34.5t36.5 24t43 9q39 0 58.5 -24t19.5 -65q0 -46 -20.5 -87.5t-57 -75.5t-86 -60.5t-109.5 -44.5z" />
<glyph unicode="&#x201c;" horiz-adv-x="752" d="M260 702q0 87 81 154q29 24 97 60l15 -21q-50 -19 -86 -61q-17 -20 -17 -48q0 -14 3 -22q14 -16 36 -48q5 -10 5 -23q0 -28 -20 -48.5t-48 -20.5q-66 0 -66 78zM562 701q0 128 180 210l14 -16q-104 -57 -104 -107q0 -12 4 -24q14 -14 36 -46q4 -10 4 -24q0 -29 -19 -49.5 t-48 -20.5q-67 0 -67 77z" />
<glyph unicode="&#x201d;" horiz-adv-x="752" d="M246 648q104 56 104 106q0 12 -5 24q-14 16 -35 46q-4 10 -4 22q0 28 19 49t47 21q68 0 68 -78q0 -130 -180 -214zM549 649q49 21 85 61q18 20 18 46q0 13 -4 22q-14 17 -35 47q-5 11 -5 23q0 28 20 48t48 20q66 0 66 -78q0 -87 -82 -154q-28 -24 -96 -60z" />
<glyph unicode="&#x201e;" horiz-adv-x="600" d="M23 -209l9 28q40 19 66 35.5t43 33t26 33.5t15 37q2 7 3 12l1 9q0 8 -4.5 12t-9.5 4q-4 0 -10.5 -1.5t-14 -3.5t-15.5 -3.5t-13 -1.5q-24 0 -37.5 13t-13.5 34q0 18 10.5 36t27 32t36.5 23t42 9q16 0 30 -6t25.5 -18t18.5 -28t7 -36q0 -38 -19 -77.5t-52 -74t-77 -61 t-94 -40.5zM338 -209l8 28q74 33 114.5 74t40.5 85q0 8 -3.5 12.5t-9.5 4.5q-4 0 -11.5 -1.5t-15 -3.5t-15 -3.5t-11.5 -1.5q-21 0 -35 12.5t-14 34.5q0 18 9 36t24.5 32t36 23t42.5 9q16 0 31.5 -6.5t27 -18.5t18 -28.5t6.5 -35.5q0 -38 -18.5 -76t-51.5 -72t-77.5 -61 t-95.5 -43z" />
<glyph unicode="&#x2022;" horiz-adv-x="473" d="M114 447q0 70 48 117.5t118 47.5q69 0 117.5 -48t48.5 -117q0 -70 -48.5 -118t-117.5 -48q-70 0 -118 48t-48 118z" />
<glyph unicode="&#x2026;" horiz-adv-x="1202" d="M176 55q0 73 73 73t73 -73q0 -31 -21 -52t-52 -21q-30 0 -51.5 21t-21.5 52zM524 55q0 73 74 73q73 0 73 -73q0 -31 -21.5 -52t-51.5 -21t-52 21t-22 52zM874 55q0 73 73 73t73 -73q0 -31 -21 -52t-52 -21q-30 0 -51.5 21t-21.5 52z" />
<glyph unicode="&#x202f;" horiz-adv-x="273" />
<glyph unicode="&#x2039;" horiz-adv-x="450" d="M79 306l351 311h38l-257 -311l65 -311h-38z" />
<glyph unicode="&#x203a;" horiz-adv-x="450" d="M-20 -5l256 310l-64 312h38l164 -312l-356 -310h-38z" />
<glyph unicode="&#x205f;" horiz-adv-x="341" />
<glyph unicode="&#x20ac;" d="M23 380l28 52h49l2 10q5 20 13 44h-65l28 52h55q61 156 171 258q128 118 278 118q114 0 210 -58l-50 -198h-26q6 34 6 62q1 150 -151 150q-105 0 -193 -110q-68 -85 -116 -222h390l-28 -52h-379q-9 -28 -16 -54h365l-28 -52h-348q-30 -140 -3 -232q31 -108 131 -108 q88 0 160 45q42 28 116 103l17 -13q-79 -90 -135 -128q-92 -63 -198 -63q-152 0 -203 126q-25 62 -25 145q0 57 12 125h-67z" />
<glyph unicode="&#x2122;" horiz-adv-x="1325" d="M61 762l55 133h480l-26 -133h-23q1 7 2 13.5t1 12.5q0 16 -5 28t-17 21t-31 13.5t-49 4.5h-50l-118 -382q-6 -19 -8.5 -33t-2.5 -22q0 -17 12.5 -24.5t42.5 -7.5l-8 -24h-246l7 24q22 2 36.5 6t23.5 12.5t17 24.5t16 44l118 382h-50q-32 0 -55.5 -4.5t-41 -15.5 t-31.5 -29t-27 -44h-22zM492 362l7 24q28 0 44 3.5t26 13t16.5 26.5t14.5 44l96 307q7 22 10 38q4 16 4 24v1q0 6 -3 11.5t-10 9t-19 5.5t-30 2l8 24h189l63 -378l292 378h184l-8 -24q-28 0 -43.5 -3.5t-25.5 -13.5t-16.5 -27.5t-14.5 -44.5l-96 -309q-6 -19 -8.5 -33 t-2.5 -22t2.5 -14t9.5 -10t18 -6t28 -2l-7 -24h-262l7 24q28 0 44.5 4t27.5 13.5t18 26t15 42.5l100 325l-336 -435h-22l-71 429l-99 -318q-8 -24 -10 -36.5t-2 -20.5q0 -14 10 -22t37 -8h24l-7 -24h-202z" />
<glyph unicode="&#xe000;" horiz-adv-x="600" d="M0 600h600v-600h-600v600z" />
<glyph unicode="&#xfb01;" horiz-adv-x="751" d="M434 41q0 24 16 81l86 296q22 72 22 91q0 33 -39 33q-14 0 -60 -8v26l228 38l-131 -464q-13 -46 -13 -56q0 -24 21 -23q10 1 24 11q37 29 76 84l23 -16q-45 -68 -105 -115q-46 -35 -86 -35q-62 0 -62 57zM612 794q0 66 66 66t66 -66t-66 -66t-66 66zM-236 -225 q0 52 58 52q42 0 42 -37q0 -14 -13 -27q-11 -10 -11 -14q0 -13 24 -13q66 0 115 70q24 34 46 102q11 35 49 183l116 447h-116l10 44q86 0 116 36q18 22 48 80q40 80 74 123q97 117 204 117q40 0 72 -19q38 -24 39 -61q0 -55 -54 -55q-47 1 -47 41q0 10 9 26t9 20 q0 20 -32 21q-90 0 -153 -136q-17 -37 -65 -193h96l-11 -44h-97l-72 -288q-48 -190 -97 -296q-116 -246 -271 -246q-38 0 -67 24q-21 17 -21 43z" />
<glyph unicode="&#xfb02;" horiz-adv-x="751" d="M428 41q0 23 22 97l178 620q22 76 22 87q0 36 -52 36q-16 -1 -46 -5v25l226 37l-226 -785q-16 -58 -16 -72q0 -23 22 -23q12 0 26 12q34 26 72 83l20 -21q-106 -148 -189 -148q-59 0 -59 57zM-236 -225q0 52 58 52q42 0 42 -37q0 -14 -13 -27q-11 -10 -11 -14 q0 -13 24 -13q66 0 115 70q24 34 46 102q11 35 49 183l116 447h-116l10 44q86 0 116 36q18 22 48 80q40 80 74 123q97 117 204 117q40 0 72 -19q38 -24 39 -61q0 -55 -54 -55q-47 1 -47 41q0 10 9 26t9 20q0 20 -32 21q-90 0 -153 -136q-17 -37 -65 -193h96l-11 -44h-97 l-72 -288q-48 -190 -97 -296q-116 -246 -271 -246q-38 0 -67 24q-21 17 -21 43z" />
<glyph unicode="&#xfb03;" horiz-adv-x="1126" d="M809 41q0 24 16 81l86 296q22 72 22 91q0 33 -39 33q-14 0 -60 -8v26l228 38l-131 -464q-13 -46 -13 -56q0 -24 21 -23q10 1 24 11q37 29 76 84l23 -16q-45 -68 -105 -115q-46 -35 -86 -35q-62 0 -62 57zM987 794q0 66 66 66t66 -66t-66 -66t-66 66zM140 -225q0 52 58 52 q42 0 42 -37q0 -14 -13 -27q-11 -10 -11 -14q0 -13 24 -13q66 0 115 70q24 34 46 102q11 35 49 183l116 447h-116l10 44q86 0 116 36q18 22 48 80q40 80 74 123q97 117 204 117q40 0 72 -19q38 -24 39 -61q0 -55 -54 -55q-47 1 -47 41q0 10 9 26t9 20q0 20 -32 21 q-90 0 -153 -136q-17 -37 -65 -193h96l-11 -44h-97l-72 -288q-48 -190 -97 -296q-116 -246 -271 -246q-38 0 -67 24q-21 17 -21 43zM-236 -225q0 52 58 52q42 0 42 -37q0 -14 -13 -27q-11 -10 -11 -14q0 -13 24 -13q66 0 115 70q24 34 46 102q11 35 49 183l116 447h-116 l10 44q86 0 116 36q18 22 48 80q40 80 74 123q97 117 204 117q40 0 72 -19q38 -24 39 -61q0 -55 -54 -55q-47 1 -47 41q0 10 9 26t9 20q0 20 -32 21q-90 0 -153 -136q-17 -37 -65 -193h96l-11 -44h-97l-72 -288q-48 -190 -97 -296q-116 -246 -271 -246q-38 0 -67 24 q-21 17 -21 43z" />
<glyph unicode="&#xfb04;" horiz-adv-x="1126" d="M803 41q0 23 22 97l178 620q22 76 22 87q0 36 -52 36q-16 -1 -46 -5v25l226 37l-226 -785q-16 -58 -16 -72q0 -23 22 -23q12 0 26 12q34 26 72 83l20 -21q-106 -148 -189 -148q-59 0 -59 57zM140 -225q0 52 58 52q42 0 42 -37q0 -14 -13 -27q-11 -10 -11 -14 q0 -13 24 -13q66 0 115 70q24 34 46 102q11 35 49 183l116 447h-116l10 44q86 0 116 36q18 22 48 80q40 80 74 123q97 117 204 117q40 0 72 -19q38 -24 39 -61q0 -55 -54 -55q-47 1 -47 41q0 10 9 26t9 20q0 20 -32 21q-90 0 -153 -136q-17 -37 -65 -193h96l-11 -44h-97 l-72 -288q-48 -190 -97 -296q-116 -246 -271 -246q-38 0 -67 24q-21 17 -21 43zM-236 -225q0 52 58 52q42 0 42 -37q0 -14 -13 -27q-11 -10 -11 -14q0 -13 24 -13q66 0 115 70q24 34 46 102q11 35 49 183l116 447h-116l10 44q86 0 116 36q18 22 48 80q40 80 74 123 q97 117 204 117q40 0 72 -19q38 -24 39 -61q0 -55 -54 -55q-47 1 -47 41q0 10 9 26t9 20q0 20 -32 21q-90 0 -153 -136q-17 -37 -65 -193h96l-11 -44h-97l-72 -288q-48 -190 -97 -296q-116 -246 -271 -246q-38 0 -67 24q-21 17 -21 43z" />
</font>
</defs>
</svg>
